<?xml version="1.0" standalone="no"?>
<!DOCTYPE svg PUBLIC "-//W3C//DTD SVG 1.1//EN" "http://www.w3.org/Graphics/SVG/1.1/DTD/svg11.dtd" >
<svg>
<metadata>
Created by FontForge 20090622 at Tue Apr  5 10:48:04 2016
 By ffonts
Typeface &#194;&#169; 538Fonts. 2016. All Rights Reserved
</metadata>
<defs>
<font id="POERedcoatNew" horiz-adv-x="1009" >
  <font-face 
    font-family="POE Redcoat New"
    font-weight="400"
    font-stretch="normal"
    units-per-em="2048"
    panose-1="2 11 5 2 6 6 4 2 9 4"
    ascent="1638"
    descent="-410"
    x-height="1022"
    cap-height="1434"
    bbox="-572 -474.683 2046 1800"
    underline-thickness="150"
    underline-position="-142"
    unicode-range="U+0020-U+F002"
  />
<missing-glyph horiz-adv-x="1020" 
d="M98 0v1434h824v-1434h-824zM148 50h724v1334h-724v-1334z" />
    <glyph glyph-name=".notdef" horiz-adv-x="1020" 
d="M98 0v1434h824v-1434h-824zM148 50h724v1334h-724v-1334z" />
    <glyph glyph-name=".null" horiz-adv-x="0" 
 />
    <glyph glyph-name="nonmarkingreturn" horiz-adv-x="504" 
 />
    <glyph glyph-name="space" unicode=" " horiz-adv-x="333" 
 />
    <glyph glyph-name="space" unicode="&#xa0;" horiz-adv-x="333" 
 />
    <glyph glyph-name="exclam" unicode="!" horiz-adv-x="319" 
d="M223 439h-125l-20 995h175zM253 -1h-175v224h175v-224z" />
    <glyph glyph-name="quotedbl" unicode="&#x22;" horiz-adv-x="545" 
d="M158 943l-80 491h175zM398 943l-80 491h175z" />
    <glyph glyph-name="numbersign" unicode="#" horiz-adv-x="1203" 
d="M299 550l32 425h-230l243 175l22 284h175l-22 -284h225l22 284h175l-22 -284h230l-243 -175l-32 -425h230l-243 -175l-28 -376h-175l28 376h-225l-28 -376h-175l28 376h-230zM506 975l-32 -425h225l32 425h-225z" />
    <glyph glyph-name="dollar" unicode="$" horiz-adv-x="1116" 
d="M502 1284q-138 -6 -194 -55q-64 -57 -64 -145q0 -98 83 -159q59 -43 175 -84v443zM596 653v-512q113 7 186 61q83 61 83 179t-93 189q-60 44 -176 83zM502 1428l94 104v-105q181 -12 309 -107q128 -110 137 -296h-178q-8 135 -92 198q-74 50 -176 60v-472
q156 -51 309 -134q147 -106 147 -295q0 -159 -137 -272q-126 -103 -319 -112l-94 -83v84q-215 12 -328 123q-118 124 -127 310h197q8 -145 78 -218q64 -59 180 -70v538q-149 48 -308 141q-147 93 -147 262q0 159 123 252q112 86 332 92z" />
    <glyph glyph-name="percent" unicode="%" horiz-adv-x="1253" 
d="M243 -1h-175l969 1435h175zM129 1161q0 -78 40.5 -133t130.5 -55t133.5 55t43.5 133v4q0 78 -43.5 132.5t-133.5 54.5t-130.5 -54.5t-40.5 -132.5v-4zM567 1147q0 -106 -70 -180t-197 -74t-194 74t-67 180v32q0 105 67 179t194 74t197 -74t70 -179v-32zM794 268
q0 -78 40.5 -133t130.5 -55t133.5 55t43.5 133v4q0 78 -43.5 132.5t-133.5 54.5t-130.5 -54.5t-40.5 -132.5v-4zM1232 254q0 -106 -70 -180t-197 -74t-194 74t-67 180v32q0 105 67 179t194 74t197 -74t70 -179v-32z" />
    <glyph glyph-name="ampersand" unicode="&#x26;" horiz-adv-x="1215" 
d="M195.5 1132q13.5 129 114.5 198q90 69 207 69q156 0 233.5 -94t77.5 -210q0 -217 -250 -346l305 -324q40 80 40 212v118h156v-127q-12 -211 -94 -318l243 -313l-336 193q-199 -203 -409 -203t-318 79t-127.5 231.5t67 280t244.5 202.5l-78 94q-89 129 -75.5 258zM800 309
l-351 366q-172 -92 -217.5 -180t-35 -179t76 -139.5t220.5 -38.5t307 171zM487 850q194 95 198 238q-7 173 -170 177q-146 -4 -165 -137q-10 -84 68 -201z" />
    <glyph glyph-name="quotesingle" unicode="'" horiz-adv-x="319" 
d="M158 943l-80 491h175z" />
    <glyph glyph-name="parenleft" unicode="(" horiz-adv-x="496" 
d="M348 1563q-282 -418 -279.5 -845t237.5 -852h117q-175 431 -177.5 861.5t190.5 835.5h-88z" />
    <glyph glyph-name="parenright" unicode=")" horiz-adv-x="496" 
d="M68 1563q193 -405 190.5 -835.5t-177.5 -861.5h117q235 425 237.5 852t-279.5 845h-88z" />
    <glyph glyph-name="asterisk" unicode="*" horiz-adv-x="666" 
d="M275 1270v118l126 -117l82 83l89 -89l-83 -84h118v-126h-115l82 -81l-89 -90l-84 83v-118l-126 116l-82 -83l-90 89l83 84h-118v126h118l-84 83l89 89z" />
    <glyph glyph-name="plus" unicode="+" horiz-adv-x="666" 
d="M401 721h206l-206 -126v-206h-126v206h-207l207 126v207h126v-207z" />
    <glyph glyph-name="comma" unicode="," horiz-adv-x="319" 
d="M93 224h175q16 -335 -295 -491q180 246 120 491z" />
    <glyph glyph-name="hyphen" unicode="-" horiz-adv-x="666" 
d="M637 721l-60 -126h-539l60 126h539z" />
    <glyph glyph-name="hyphen" unicode="&#xad;" horiz-adv-x="666" 
d="M637 721l-60 -126h-539l60 126h539z" />
    <glyph glyph-name="period" unicode="." horiz-adv-x="319" 
d="M253 -1h-175v224h175v-224z" />
    <glyph glyph-name="slash" unicode="/" horiz-adv-x="1253" 
d="M243 -1h-175l969 1435h175z" />
    <glyph glyph-name="zero" unicode="0" horiz-adv-x="1116" 
d="M315.5 295.5q76.5 -148.5 245.5 -148.5q170 0 251.5 148.5t81.5 419t-81.5 419t-251.5 148.5q-169 0 -245.5 -148.5t-76.5 -419t76.5 -419zM932.5 181.5q-131.5 -184.5 -371.5 -184.5q-239 0 -365.5 184.5t-126.5 533t126.5 533t365.5 184.5q240 0 371.5 -184.5
t131.5 -533t-131.5 -533z" />
    <glyph glyph-name="one" unicode="1" horiz-adv-x="519" 
d="M315 1091h-288l463 338v-1432h-175v1094z" />
    <glyph glyph-name="two" unicode="2" horiz-adv-x="1116" 
d="M57 161q0 119 107.5 230t193.5 164t424 280q83 61 83 209q0 88 -83.5 164.5t-221.5 76.5q-129 0 -213 -78t-92 -233h-198q9 186 137 320.5t366 134.5q207 0 354.5 -113t147.5 -272q0 -219 -147 -312q-175 -103 -298 -191l-274 -207q-97 -99 -98 -188h700l100 -146h-989z
" />
    <glyph glyph-name="three" unicode="3" horiz-adv-x="1129" 
d="M125 1429h433q230 0 368 -98t138 -277q0 -229 -208 -317q134 -45 196 -150q61 -106 41 -242t-157 -242q-138 -96 -368 -103q-231 3 -377 108q-147 105 -160 282h171q5 -119 100 -180t269 -62q174 8 268 77q94 78 94 203q0 124 -104 187t-232 63h-105v138h96q126 0 215 58
q88 58 88 180q0 112 -88 170q-89 58 -252 59h-426v146z" />
    <glyph glyph-name="four" unicode="4" horiz-adv-x="1102" 
d="M235 482h446v689zM53 473l628 961h175v-952h185v-136h-185v-217l-175 -130v347h-626v126z" />
    <glyph glyph-name="five" unicode="5" horiz-adv-x="1140" 
d="M283 916q93 70 265 70q136 0 257.5 -44t209.5 -147.5t88 -299.5q0 -236 -152.5 -367t-368.5 -131l-45 1q-190 5 -331.5 125t-154.5 337h181q5 -159 90 -235t215 -78q21 -1 40 -1q148 0 252 88.5t104 263.5q0 184 -104 267t-252 83q-214 -1 -289 -82h-187l57 663h833
l-130 -138h-548z" />
    <glyph glyph-name="six" unicode="6" horiz-adv-x="1147" 
d="M578 785q-133 0 -225.5 -83t-92.5 -265q0 -147 97.5 -230t240.5 -83q132 0 225 83t93 230q0 192 -93 270t-245 78zM807 1314h-196q-159 -1 -249.5 -129t-111.5 -416q0 -6 1 -9q101 152 327 152q225 0 364.5 -115t144.5 -342q-5 -228 -144.5 -343t-344.5 -115
q-256 0 -395.5 155t-143.5 442q6 436 138.5 636t413.5 209h325z" />
    <glyph glyph-name="seven" unicode="7" horiz-adv-x="1071" 
d="M321 -1h-175l730 1299h-850l130 136h885v-126z" />
    <glyph glyph-name="eight" unicode="8" horiz-adv-x="1129" 
d="M520 1283q-113 -1 -202 -59q-88 -58 -88 -170q0 -122 88 -180q89 -58 215 -58h58q126 0 215 58q88 58 88 180q0 112 -88 170q-89 58 -252 59h-34zM524 678q-128 0 -232 -63t-104 -187q0 -125 94 -203q89 -75 249 -77h43q174 -2 268 77q94 78 94 203q0 124 -104 187
t-232 63h-76zM553 0q-230 -3 -368 103q-137 106 -157 242q-20 146 41 242q62 105 196 150q-208 88 -208 317q0 179 138 277q125 89 326 97l41 1q229 0 367 -98t138 -277q0 -229 -208 -317q134 -45 196 -150q61 -106 41 -242t-157 -242q-138 -106 -386 -103z" />
    <glyph glyph-name="nine" unicode="9" horiz-adv-x="1147" 
d="M573 651q133 0 225.5 83t92.5 265q0 147 -97.5 230t-240.5 83q-132 0 -225 -83t-93 -230q0 -192 93 -270t245 -78zM122 122h418q159 1 249.5 129t111.5 416q0 7 -1 9q-101 -152 -327 -152q-225 0 -369.5 115t-144.5 342.5t144.5 342.5t349.5 115q256 0 395.5 -155
t143.5 -442q4 -436 -133.5 -641t-418.5 -204h-288z" />
    <glyph glyph-name="colon" unicode=":" horiz-adv-x="319" 
d="M253 -1h-175v224h175v-224zM253 799h-175v224h175v-224z" />
    <glyph glyph-name="semicolon" unicode=";" horiz-adv-x="319" 
d="M253 799h-175v224h175v-224zM83 224h175q35 -375 -295 -491q180 246 120 491z" />
    <glyph glyph-name="less" unicode="&#x3c;" horiz-adv-x="1092" 
d="M32 680l1028 401v-175l-828 -323l828 -323v-175l-1028 401v194z" />
    <glyph glyph-name="equal" unicode="=" horiz-adv-x="666" 
d="M607 811v-126h-539v126h539zM607 611v-126h-539v126h539z" />
    <glyph glyph-name="greater" unicode="&#x3e;" horiz-adv-x="1092" 
d="M1060 486l-1028 -401v175l828 323l-828 323v175l1028 -401v-194z" />
    <glyph glyph-name="question" unicode="?" horiz-adv-x="1032" 
d="M540 355q-164 0 -164 120q6 171 224 310t218 269q0 129 -79 188q-69 48 -203 52q-154 -7 -239 -73t-90 -195h-163q5 197 131.5 297t371.5 103q186 -7 303 -88q138 -91 138 -277t-225 -338q-225 -123 -223 -288v-80zM548 -1h-175v194h175v-194z" />
    <glyph glyph-name="at" unicode="@" horiz-adv-x="1493" 
d="M950 794q-44 -29 -147 -38q-108 -9 -177 -46q-52 -42 -52 -120q0 -79 51.5 -112.5t124.5 -33.5q74 0 141 33q54 30 59 48v269zM1084 507q3 -70 80 -70q160 -6 179 277q0 285 -160 447t-420 162q-268 0 -418 -187t-150 -422q0 -267 160 -444t458 -177q254 0 422 143
q-42 -229 -422 -239q-333 0 -533.5 209.5t-200.5 506.5t200.5 506.5t483.5 209.5q325 0 505.5 -194.5t180.5 -521.5q0 -147 -66.5 -260t-211.5 -115q-141 -6 -201 94q-120 -84 -220 -84q-136 0 -223 62t-87 180q0 117 91 179q83 57 175.5 72.5t168 24.5t75.5 57t-51.5 82
t-125.5 34q-73 0 -125 -34q-45 -30 -50 -102h-127q-3 111 83 169q91 62 219 62q129 0 220 -62t91 -149v-416z" />
    <glyph glyph-name="A" unicode="A" horiz-adv-x="1256" 
d="M510 566h346l-210 657l-393 -1224h-175l460 1435h215l460 -1435h-175l-141 441h-297z" />
    <glyph glyph-name="B" unicode="B" horiz-adv-x="1183" 
d="M342 826h316q116 0 189.5 58t73.5 170q0 117 -68.5 175t-194.5 58h-395l-1 -1141h425q266 7 266 262q0 254 -276 280h-255zM663 1434q185 0 308 -98t123 -272q0 -239 -212 -306q241 -87 241 -363q0 -176 -122.5 -287t-308.5 -111h-604v1437h575z" />
    <glyph glyph-name="C" unicode="C" horiz-adv-x="1253" 
d="M1114 1286q-381 1 -403 1q-209 0 -335 -167q-126 -170 -126 -404t126 -400q126 -167 335 -167q160 0 240 86t105 225h171l-2 -32q-21 -195 -157.5 -310t-356.5 -115q-279 0 -455 210q-175 207 -175 503t175 508q176 209 455 209q22 0 403 -1v-146z" />
    <glyph glyph-name="D" unicode="D" horiz-adv-x="1317" 
d="M253 1017v-883h408q190 0 311.5 134.5t121.5 453.5q0 285 -106.5 429.5t-296.5 144.5h-613v138h613q260 0 416.5 -184.5t156.5 -528.5q0 -375 -171.5 -549.5t-431.5 -174.5h-583v1150z" />
    <glyph glyph-name="E" unicode="E" horiz-adv-x="1200" 
d="M273 701v-567h748l130 -137h-1053v1437h1053l-130 -138h-748v-467h718v-128h-718z" />
    <glyph glyph-name="F" unicode="F" horiz-adv-x="1200" 
d="M1021 1434l130 -138h-878v-467h718v-128h-718v-704h-175v1437h923z" />
    <glyph glyph-name="G" unicode="G" horiz-adv-x="1253" 
d="M1052 135l-9 -7q-112 -135 -332 -125q-279 0 -455 210q-175 207 -175 505t175 506q176 209 455 209q210 10 356.5 -95t159.5 -278v-24h-181v23q5 96 -95 167q-100 63 -240 61q-209 0 -335 -167q-126 -166 -126 -402t126 -402q126 -167 335 -167q160 -11 250.5 78.5
t90.5 292.5v83h-284l120 136h339v-740z" />
    <glyph glyph-name="H" unicode="H" horiz-adv-x="1156" 
d="M315 788h603v646h175v-1435h-175v647h-503zM233 -1h-175v1435h175v-1435z" />
    <glyph glyph-name="I" unicode="I" horiz-adv-x="319" 
d="M253 -1h-175v1305l175 130v-1435z" />
    <glyph glyph-name="J" unicode="J" horiz-adv-x="890" 
d="M852 361q-15 -364 -408 -363q-208 0 -298.5 103.5t-87.5 238.5h166q4 -217 220 -217q251 1 233 268v1043l175 -130v-943z" />
    <glyph glyph-name="K" unicode="K" horiz-adv-x="1092" 
d="M253 475v-476h-175v1435h175v-683l585 683h215l-549 -682l550 -752h-115l-564 625z" />
    <glyph glyph-name="L" unicode="L" horiz-adv-x="1200" 
d="M273 134h878v-138h-1053v1438l175 -130v-1170z" />
    <glyph glyph-name="M" unicode="M" horiz-adv-x="1505" 
d="M253 994v-865l-175 -130v1435h175l503 -1264l503 1264h175v-1435l-175 130v865l-396 -995h-214z" />
    <glyph glyph-name="N" unicode="N" horiz-adv-x="1165" 
d="M253 1118v-1119l-175 130v1305h175l689 -1119v1119l175 -130v-1305h-175z" />
    <glyph glyph-name="O" unicode="O" horiz-adv-x="1317" 
d="M1107.5 1223q176.5 -210 176.5 -508t-176.5 -508t-426.5 -210q-249 0 -425.5 210t-176.5 508t176.5 508t425.5 210q250 0 426.5 -210zM681 1289q-179 0 -305.5 -168.5t-126.5 -404.5q0 -238 126.5 -406.5t305.5 -168.5q180 0 306.5 168.5t126.5 406.5q0 236 -126.5 404.5
t-306.5 168.5z" />
    <glyph glyph-name="P" unicode="P" horiz-adv-x="1137" 
d="M336 657h357q98 0 167 94t69 231q0 133 -69 227t-167 94h-420v-1304h-175v1434h627q157 0 268 -131.5t111 -319.5q0 -190 -111 -321.5t-268 -131.5h-299z" />
    <glyph glyph-name="Q" unicode="Q" horiz-adv-x="1317" 
d="M1007 337q107 159 107 381q0 235 -126.5 402t-306.5 167q-179 0 -305.5 -167t-126.5 -402q0 -241 126.5 -408t305.5 -167q138 0 245 98l-141 249zM1042 138q-156 -141 -361 -141q-249 0 -425.5 209.5t-176.5 510.5q0 297 176.5 506.5t425.5 209.5q250 0 426.5 -209.5
t176.5 -506.5q0 -284 -157 -486l160 -232z" />
    <glyph glyph-name="R" unicode="R" horiz-adv-x="1137" 
d="M359 777h336q214 -12 214 261t-214 265h-452v-1304h-175v1434h657q157 0 253 -101.5t96 -295.5t-74 -267.5t-170 -97.5q137 -42 162 -252l50 -251q25 -89 61 -169h-45q-155 40 -194 241l-41 184q-40 214 -237 225h-227v128z" />
    <glyph glyph-name="S" unicode="S" horiz-adv-x="1116" 
d="M826 1288h-288q-169 0 -232.5 -56.5t-63.5 -144.5q0 -98 83 -159q75 -55 244 -107t334 -142q147 -106 147 -295q0 -159 -137.5 -272t-354.5 -113q-258 0 -386 124.5t-127 310.5h197q-2 -145 77.5 -218t238.5 -73q138 0 221.5 61.5t83.5 179.5t-93 189q-75 55 -239 102
t-339 150q-147 93 -147 262q0 159 122.5 252t370.5 93h418z" />
    <glyph glyph-name="T" unicode="T" horiz-adv-x="1071" 
d="M621 1278v-1149l-175 -130v1279h-290l-130 156h885l130 -156h-420z" />
    <glyph glyph-name="U" unicode="U" horiz-adv-x="1148" 
d="M924 1433h164v-959q6 -198 -125.5 -337.5t-381.5 -139.5q-249 0 -375.5 139.5t-126.5 337.5v959l170 -130v-802q0 -147 76.5 -250.5t255.5 -103.5q180 0 261.5 103.5t81.5 250.5v932z" />
    <glyph glyph-name="V" unicode="V" horiz-adv-x="1256" 
d="M538 -1l-460 1435h65l503 -1224l392 1224h175l-460 -1435h-215z" />
    <glyph glyph-name="W" unicode="W" horiz-adv-x="1833" 
d="M936 1125l-283 -1126h-215l-360 1435h175l293 -1224l292 1224h195l293 -1224l402 1224h65l-360 -1435h-215z" />
    <glyph glyph-name="X" unicode="X" horiz-adv-x="1161" 
d="M688 717l415 -718h-85l-427 549l-318 -549h-195l415 718l-415 717h65l448 -549l317 549h195z" />
    <glyph glyph-name="Y" unicode="Y" horiz-adv-x="1161" 
d="M508 691l-15 26l-415 717h195l318 -549l427 549h85l-415 -717l-5 -9v-709h-175v692z" />
    <glyph glyph-name="Z" unicode="Z" horiz-adv-x="1085" 
d="M1033 1311l-777 -1176h761l-120 -136h-840v124l788 1175h-791l120 136h859v-123z" />
    <glyph glyph-name="bracketleft" unicode="[" horiz-adv-x="501" 
d="M273 134h178v-137l-353 -1v1433h353v-138h-178v-1157z" />
    <glyph glyph-name="backslash" unicode="\" horiz-adv-x="1253" 
d="M1212 -1h-175l-969 1435h175z" />
    <glyph glyph-name="bracketright" unicode="]" horiz-adv-x="501" 
d="M276 1291h-178v138h353v-1433l-353 1v137h178v1157z" />
    <glyph glyph-name="asciicircum" unicode="^" horiz-adv-x="761" 
d="M470 1453l241 -372h-125l-203 260l-204 -260h-125l241 372l-1 1h177z" />
    <glyph glyph-name="underscore" unicode="_" horiz-adv-x="905" 
d="M855 125v-126h-830v126h830z" />
    <glyph glyph-name="grave" unicode="`" horiz-adv-x="545" 
d="M465 1081h-125l-235 279h175z" />
    <glyph glyph-name="a" unicode="a" horiz-adv-x="887" 
d="M700 86q-101 -90 -271 -90q-178 0 -292 81t-114 235t119 235q109 74 229.5 94.5t219.5 32t99 74.5t-67.5 107t-163.5 44t-164 -44q-59 -39 -66 -133h-166q-3 145 109 221q119 81 287 81t287 -81t119 -195v-749zM690 559q-58 -18 -193 -30q-141 -11 -231 -60
q-68 -54 -68 -157t67.5 -147t163.5 -44t184 44q70 39 77 63v331z" />
    <glyph glyph-name="b" unicode="b" 
d="M198 293q22 -65 97 -117t194 -52q129 0 220 113t91 273q0 159 -91 272t-220 113t-204 -72t-87 -127v-403zM198 893q129 129 304 129q196 0 334.5 -150t138.5 -362q0 -213 -138.5 -363t-334.5 -150q-175 0 -304 129l-175 -127v1433l175 -130v-409z" />
    <glyph glyph-name="c" unicode="c" horiz-adv-x="995" 
d="M868 895q-309 1 -319 1q-159 -1 -249.5 -114t-90.5 -272q0 -160 90.5 -273t241.5 -114q106 0 169.5 56.5t70.5 150.5h176q-7 -145 -122.5 -238.5t-293.5 -93.5q-223 -1 -365.5 149t-142.5 363q0 212 142.5 362t373.5 149h319v-126z" />
    <glyph glyph-name="d" unicode="d" 
d="M800 696q-12 55 -87 127t-204 72t-220 -113t-91 -272q0 -160 91 -273t220 -113q119 0 194 52t97 117v403zM800 1302l175 130v-1433l-175 117q-129 -119 -304 -119q-196 0 -334.5 150t-138.5 363q0 212 138.5 362t334.5 150q175 0 304 -119v399z" />
    <glyph glyph-name="e" unicode="e" horiz-adv-x="1026" 
d="M281 581h544q-16 114 -86 201q-91 113 -220 113t-219 -103q-80 -97 -88 -296q3 -166 88 -259q90 -113 241 -114q96 0 174 44q89 49 106 153h156q-7 -135 -149 -241q-119 -81 -287 -81q-223 -1 -365.5 149t-142.5 363q0 212 142.5 362t343.5 150q202 0 344 -150t133 -416
h-645z" />
    <glyph glyph-name="f" unicode="f" horiz-adv-x="556" 
d="M171 1026v179q0 95 66.5 161.5t160.5 66.5h125v-47q-176 -59 -177 -154v-206h172l-172 -126v-903h-175v903h-128z" />
    <glyph glyph-name="g" unicode="g" horiz-adv-x="1003" 
d="M491 894q-109 0 -186 -54.5t-77 -130.5q0 -77 77 -131t186 -54q110 0 187 54t77 131q0 76 -77 130.5t-187 54.5zM160.5 168.5q-70.5 58.5 -70.5 144.5q0 87 70 148q14 12 29 21q-4 3 -7 5q-128 92 -128 222q0 129 128 221t309 92q103 0 159 -23l294 145l-171 -211
q155 -94 155 -224t-128 -222t-309 -92q-55 0 -143 17q-31 -3 -53 -26q-26 -26 -26 -63t20.5 -63t78.5 -48q41 -16 236 -83t268 -120.5t73 -150.5v-18q0 -78 -73 -141q-73 -64 -227 -94q-370 -19 -571 77v57q251 -26 575 -5q63 20 92 50q30 30 30 74q0 43 -30 74
q-29 29 -202 83q-308 95 -378.5 153.5z" />
    <glyph glyph-name="h" unicode="h" 
d="M218 -2h-175v1304l175 130v-559q109 149 304 149q433 -10 433 -442v-582h-175v582q8 315 -271 315q-269 -10 -291 -309v-588z" />
    <glyph glyph-name="i" unicode="i" horiz-adv-x="255" 
d="M48 897l175 130v-1028h-175v898zM48 1432h175l-175 -191v191z" />
    <glyph glyph-name="j" unicode="j" horiz-adv-x="255" 
d="M48 1432h175v-191zM-119 -222h115q21 0 36 14.5t16 39.5v1065l175 130v-1168q0 -95 -66.5 -161.5t-160.5 -66.5h-115v147z" />
    <glyph glyph-name="k" unicode="k" horiz-adv-x="907" 
d="M223 416v-417h-175v1433l175 -130v-688l425 407h215l-460 -456l470 -566h-85l-509 478z" />
    <glyph glyph-name="l" unicode="l" horiz-adv-x="255" 
d="M223 -1h-175v1303l175 130v-1433z" />
    <glyph glyph-name="m" unicode="m" horiz-adv-x="1542" 
d="M680 -2v622q-2 275 -221 275q-239 0 -241 -269v-628h-175v1024l175 -99q69 99 254 99q226 0 315 -171q87 171 335 171q366 0 373 -402v-622h-175v622q-2 275 -241 275q-219 0 -221 -279v-618h-178z" />
    <glyph glyph-name="n" unicode="n" 
d="M228 -2h-175v1024l175 -119q69 119 294 119q226 0 339.5 -120t113.5 -282v-622h-175v622q0 109 -66 192t-215 83q-289 0 -291 -239v-658z" />
    <glyph glyph-name="o" unicode="o" horiz-adv-x="1027" 
d="M853 872q142 -150 142 -362q0 -213 -142 -363t-344 -150q-201 0 -343.5 150t-142.5 363q0 212 142.5 362t343.5 150q202 0 344 -150zM509 895q-129 0 -219.5 -113t-90.5 -272q0 -160 90.5 -273t219.5 -113t220 113t91 273q0 159 -91 272t-220 113z" />
    <glyph glyph-name="p" unicode="p" 
d="M198 293q22 -65 97 -117t194 -52q129 0 220 113t91 273q0 159 -91 272t-220 113t-204 -72t-87 -127v-403zM198 903q129 119 304 119q196 0 334.5 -150t138.5 -362q0 -213 -138.5 -363t-334.5 -150q-175 0 -304 119v-517h-175v1423z" />
    <glyph glyph-name="q" unicode="q" 
d="M800 696q-12 55 -87 127t-204 72t-220 -113t-91 -272q0 -160 91 -273t220 -113q119 0 194 52t97 117v403zM975 1022v-1423h-175v517q-129 -119 -304 -119q-196 0 -334.5 150t-138.5 363q0 212 138.5 362t334.5 150q175 0 304 -119z" />
    <glyph glyph-name="r" unicode="r" horiz-adv-x="573" 
d="M198 -2h-175v1024l155 -109q89 109 245 112q70 0 119 -30v-133q-67 30 -134 30q-198 -1 -210 -226v-668z" />
    <glyph glyph-name="s" unicode="s" horiz-adv-x="887" 
d="M690 899h-242q-206 0 -231 -136q0 -68 44 -104.5t204.5 -72t274.5 -113t114 -211.5t-99 -200t-297 -66q-178 0 -297 81q-112 76 -119 241h175q7 -114 67 -153q68 -44 174 -44q126 0 173.5 34t47.5 107q0 83 -64 124.5t-224.5 77t-249.5 103t-89 181.5t104 195t292 81h351
z" />
    <glyph glyph-name="t" unicode="t" horiz-adv-x="556" 
d="M43 904l303 369v-243h162l-162 -126v-706q1 -25 16 -39.5t36 -14.5h105v-147h-105q-94 0 -160.5 66.5t-66.5 161.5v679h-128z" />
    <glyph glyph-name="u" unicode="u" 
d="M780 1022h175v-1024l-165 129q-99 -129 -304 -129q-226 0 -339.5 120t-113.5 282v622h175v-622q0 -109 66 -192t215 -83q289 10 291 239v658z" />
    <glyph glyph-name="v" unicode="v" horiz-adv-x="1052" 
d="M435 -1l-401 1028h75l423 -828l323 828h175l-401 -1028h-194z" />
    <glyph glyph-name="w" unicode="w" horiz-adv-x="1453" 
d="M322 -1l-299 1028h175l217 -746l217 746h186l217 -746l317 746h75l-299 -1028h-186l-217 746l-217 -746h-186z" />
    <glyph glyph-name="x" unicode="x" horiz-adv-x="951" 
d="M376 513l-328 514h105l326 -353l225 353h205l-328 -514l328 -514h-105l-325 353l-226 -353h-205z" />
    <glyph glyph-name="y" unicode="y" horiz-adv-x="1067" 
d="M460 -32l-411 1059h75l423 -828l323 828h175l-485 -1257q-53 -128 -123 -168t-152 -45t-227 -1v157q155 -4 231 7t116 83z" />
    <glyph glyph-name="z" unicode="z" horiz-adv-x="934" 
d="M604 881h-457l-100 146h830v-30l-534 -852h434l100 -146h-841v26z" />
    <glyph glyph-name="braceleft" unicode="{" horiz-adv-x="599" 
d="M160 783q21 0 36 14.5t15 41.5v366q0 95 66.5 161.5t160.5 66.5h115v-147h-115q-21 0 -36 -14.5t-15 -36.5v-371q0 -120 -110 -154q110 -35 110 -155v-371q0 -22 15 -36.5t36 -14.5h115v-147h-115q-94 0 -160.5 66.5t-65.5 162.5v367q-1 25 -16 39.5t-36 14.5h-115v147
h115z" />
    <glyph glyph-name="bar" unicode="|" horiz-adv-x="319" 
d="M246 -1h-148v1435h148v-1435z" />
    <glyph glyph-name="braceright" unicode="}" horiz-adv-x="599" 
d="M553 783v-147h-115q-21 0 -36 -14.5t-16 -39.5v-367q1 -96 -65.5 -162.5t-160.5 -66.5h-115v147h115q21 0 36 14.5t15 36.5v371q0 120 110 155q-110 34 -110 154v371q0 22 -15 36.5t-36 14.5h-115v147h115q94 0 160.5 -66.5t66.5 -161.5v-366q0 -27 15 -41.5t36 -14.5
h115z" />
    <glyph glyph-name="asciitilde" unicode="~" horiz-adv-x="980" 
d="M290.5 659q-59.5 -5 -59.5 -76v-115h-167v115q0 94 56.5 160.5t174 61.5t253.5 -98t180.5 -88t44.5 76v115h157v-135q0 -104 -46.5 -155.5t-144 -51.5t-243.5 98t-205.5 93z" />
    <glyph glyph-name="exclamdown" unicode="&#xa1;" horiz-adv-x="319" 
d="M108 584h125l20 -995h-175zM78 1024h175v-224h-175v224z" />
    <glyph glyph-name="cent" unicode="&#xa2;" horiz-adv-x="1013" 
d="M319 50q-74 36 -133 99q-143 150 -143 363q0 212 142.5 362t373.5 149q51 0 98 -8l75 214h91l-82 -234q56 -20 105 -53q112 -76 119 -181h-176q-7 54 -66 93q-13 8 -26 15l-255 -726q50 -18 109 -18q106 0 174 44q59 39 66 93h176q-7 -105 -119 -181q-119 -81 -297 -81
q-81 0 -152 19l-79 -225h-91zM615 894q-27 4 -56 4q-159 -1 -249.5 -114t-90.5 -272q0 -160 91 -273q25 -32 56 -55z" />
    <glyph glyph-name="sterling" unicode="&#xa3;" horiz-adv-x="1233" 
d="M299 123h886v-126h-1156v126h51q97 2 99 98v376h-150v126h150v232q0 198 126.5 337.5t375.5 139.5q250 0 382 -139q131 -140 125 -335h-164q0 117 -81.5 220.5t-261.5 103.5q-179 0 -255.5 -103.5t-76.5 -250.5v-205h436v-126h-436v-337q0 -108 -50 -137z" />
    <glyph glyph-name="currency" unicode="&#xa4;" horiz-adv-x="978" 
d="M489 993q-106 0 -181 -75t-75 -181t75 -181.5t181 -75.5t181.5 75.5t75.5 181.5t-75.5 181t-181.5 75zM265 433l-120 -119l-81 82l120 119q-72 96 -72 222q0 125 71 221l-119 119l81 83l120 -119q97 73 224 73t224 -73l120 119l82 -83l-120 -119q71 -96 71 -221t-71 -221
l120 -120l-82 -82l-120 119q-97 -73 -224 -73t-224 73z" />
    <glyph glyph-name="yen" unicode="&#xa5;" horiz-adv-x="1116" 
d="M657 386v-387h-175v387h-332v126h332v126h-332v126h290l-388 670h195l318 -549l317 549h195l-388 -670h291v-126h-323v-126h323v-126h-323z" />
    <glyph glyph-name="brokenbar" unicode="&#xa6;" horiz-adv-x="319" 
d="M246 815h-148v617h148v-617zM246 -1h-148v617h148v-617z" />
    <glyph glyph-name="section" unicode="&#xa7;" horiz-adv-x="887" 
d="M211 942q-26 15 -50 31q-119 81 -119 195t119 195t287 81t287 -81q112 -76 119 -181h-176q-7 54 -66 93q-68 44 -164 44t-163.5 -44t-67.5 -107t68 -107q60 -39 200.5 -69.5t249.5 -94.5q119 -91 119 -205t-119 -195q-24 -16 -50 -29q26 -15 50 -31q119 -81 119 -195
t-119 -195t-287 -81t-287 81q-112 76 -119 181h176q7 -54 66 -93q68 -44 164 -44t163.5 44t67.5 107t-68 107q-60 39 -200.5 69.5t-249.5 94.5q-119 91 -119 205t119 195q24 16 50 29zM481 542q75 7 131 43q67 44 67 107t-67 107q-60 38 -197 69q-75 -7 -130 -43
q-68 -44 -68 -107t67 -107q60 -38 197 -69z" />
    <glyph glyph-name="dieresis" unicode="&#xa8;" horiz-adv-x="637" 
d="M273 1139h-175v224h175v-224zM573 1139h-175v224h175v-224z" />
    <glyph glyph-name="copyright" unicode="&#xa9;" horiz-adv-x="1567" 
d="M780 1495q188 0 366.5 -96t278.5 -274.5t100 -372.5t-98.5 -372t-276 -275.5t-370.5 -97.5q-194 0 -370.5 97.5t-275.5 275.5t-99 372t100.5 372.5t279 274.5t365.5 96zM780 1431q-171 0 -333.5 -88t-254.5 -251t-92 -340t90 -338.5t252 -252t338 -90.5t338 90.5
t252.5 252t90.5 338.5t-92 340t-254.5 251t-334.5 88zM1148 1230l22 -294h-41q-39 125 -120.5 186.5t-197.5 61.5q-87 0 -154 -36t-110 -95q-32 -46 -53 -121t-21 -156q0 -223 96 -328.5t252 -105.5q204 0 327 170l39 -20q-146 -213 -401 -213q-211 0 -349 136t-138 330
q0 201 147 343t375 142q50 0 81 -6t115 -33q25 -9 37 -9q17 0 29 9.5t24 38.5h41z" />
    <glyph glyph-name="ordfeminine" unicode="&#xaa;" horiz-adv-x="601" 
d="M463 860q-86 -42 -172 -42q-118 0 -193 48.5t-75 140.5q0 93 79 141q71 45 151 57t145 19t65 45t-44.5 64t-107.5 26q-64 0 -108 -26q-39 -23 -44 -80h-110q-2 87 72 133q79 48 190 48t189.5 -48.5t78.5 -116.5v-450h-116v41zM463 1167q-38 -22 -127 -30q-93 -6 -153 -36
q-45 -32 -45 -94t45 -88t108 -26t121 26q47 23 51 38v210z" />
    <glyph glyph-name="guillemotleft" unicode="&#xab;" horiz-adv-x="981" 
d="M549 1081v-175l-278 -323l278 -323v-175l-478 491zM899 1081v-175l-278 -323l278 -323v-175l-478 491z" />
    <glyph glyph-name="logicalnot" unicode="&#xac;" horiz-adv-x="1200" 
d="M976 791h-878v138h1053v-623l-175 1v484z" />
    <glyph glyph-name="registered" unicode="&#xae;" horiz-adv-x="1523" 
d="M775 1386q181 0 350 -91t265 -262t96 -354q0 -186 -94 -354.5t-262.5 -262t-354.5 -93.5q-183 0 -351.5 93.5t-262 262t-93.5 354.5q0 183 95 354t265 262t347 91zM775 1327q-161 0 -317 -84.5t-242.5 -240t-86.5 -323.5q0 -169 86 -323t240 -239.5t320 -85.5
q169 0 323.5 85.5t239.5 239.5t85 323q0 168 -86.5 323.5t-241.5 240t-320 84.5zM384 1114h386q145 0 220.5 -65.5t75.5 -158.5q0 -75 -51 -133t-170 -89l209 -297q38 -55 68 -73q19 -12 53 -16v-34h-184l-294 405h-76v-308q6 -34 28.5 -48.5t90.5 -14.5v-34h-368v34
q48 0 68.5 11t28.5 34q7 17 7 93v522q0 75 -3 89q-7 22 -26 34.5t-63 12.5v36zM621 697q119 0 173 23t83 65t29 94q0 80 -57 135.5t-143 55.5q-40 0 -85 -15v-358z" />
    <glyph glyph-name="macron" unicode="&#xaf;" horiz-adv-x="666" 
d="M610 1306v-126h-539v126h539z" />
    <glyph glyph-name="degree" unicode="&#xb0;" horiz-adv-x="516" 
d="M407.5 1324.5q63.5 -65.5 63.5 -158.5t-63.5 -158.5t-153.5 -65.5t-154 65.5t-64 158.5t64 158.5t154 65.5t153.5 -65.5zM254 1334q-58 0 -98.5 -49t-40.5 -119t40.5 -119t98.5 -49q57 0 98 49t41 119t-41 119t-98 49z" />
    <glyph glyph-name="plusminus" unicode="&#xb1;" horiz-adv-x="666" 
d="M607 321v-126h-539v126h539zM401 721h206v-126h-206v-206h-126v206h-207v126h207v207h126v-207z" />
    <glyph glyph-name="uni00B2" unicode="&#xb2;" horiz-adv-x="607" 
d="M57 756q0 142 79.5 205t166 115t124.5 80q42 31 42 76t-42.5 84t-113.5 39q-65 0 -113 -31q-38 -33 -42 -81h-101q4 74 75 128q75 58 181 58t181.5 -57.5t75.5 -139.5q0 -81 -75 -128l-173.5 -102.5t-126.5 -94.5q-44 -46 -48 -129h414v-79h-505z" />
    <glyph glyph-name="uni00B3" unicode="&#xb3;" horiz-adv-x="607" 
d="M112 758q-74 53 -81 138h87q2 -55 51 -86q48 -31 136 -32q89 -1 136 39q48 40 48 104q0 63 -53 95q-52 32 -117 32h-54v70h49q64 0 109 29q45 30 45 92q0 56 -45 86q-45 29 -128 30q-83 0 -126 -41q-44 -41 -41 -82h-82q-3 80 66 139q69 58 187 58q117 0 187 -50t70 -140
q0 -117 -106 -162q68 -22 100 -76q31 -54 20 -123q-10 -69 -79 -123q-70 -53 -187 -52q-118 2 -192 55z" />
    <glyph glyph-name="acute" unicode="&#xb4;" horiz-adv-x="545" 
d="M290 1360h175l-235 -279h-125z" />
    <glyph glyph-name="mu" unicode="&#xb5;" 
d="M198 449q0 -138 71 -226t220 -88t239 113q50 61 72 136v648h175v-1034l-175 129q-129 -119 -324 -119q-169 0 -278 76v-485h-175v1433h175v-583z" />
    <glyph glyph-name="paragraph" unicode="&#xb6;" horiz-adv-x="1021" 
d="M723 789v-876h-195v876l-161 1q-111 0 -190 93t-79 226t79 226.5t190 93.5h596v-1516h-195v876h-45z" />
    <glyph glyph-name="periodcentered" unicode="&#xb7;" horiz-adv-x="815" 
d="M557 832q69 -69 69 -167t-69 -167.5t-167 -69.5t-167.5 69.5t-69.5 167.5t69.5 167t167.5 69t167 -69z" />
    <glyph glyph-name="periodcentered" unicode="&#x2219;" horiz-adv-x="815" 
d="M557 832q69 -69 69 -167t-69 -167.5t-167 -69.5t-167.5 69.5t-69.5 167.5t69.5 167t167.5 69t167 -69z" />
    <glyph glyph-name="cedilla" unicode="&#xb8;" horiz-adv-x="465" 
d="M210 -19l-42 -206h134q73 0 73 -64t-94 -64h-114v-98h121q70 0 131 34t61 124.5t-52 127t-135 36.5l24 111z" />
    <glyph glyph-name="uni00B9" unicode="&#xb9;" horiz-adv-x="255" 
d="M128 1292h-91v61q65 -6 95 76h85v-730l-89 1v592z" />
    <glyph glyph-name="ordmasculine" unicode="&#xba;" horiz-adv-x="696" 
d="M569.5 1344q93.5 -90 93.5 -217q0 -128 -93.5 -218t-227.5 -90q-132 0 -226 90t-94 218q0 127 94 217t226 90q134 0 227.5 -90zM342 1358q-85 0 -144.5 -68t-59.5 -163q0 -96 59.5 -164t144.5 -68t145.5 68t60.5 164q0 95 -60.5 163t-145.5 68z" />
    <glyph glyph-name="guillemotright" unicode="&#xbb;" horiz-adv-x="981" 
d="M919 576l-478 -491v175l278 323l-278 323v175zM569 576l-478 -491v175l278 323l-278 323v175z" />
    <glyph glyph-name="onequarter" unicode="&#xbc;" horiz-adv-x="1237" 
d="M149 1292h-91v61q65 -6 95 76h85v-730l-89 1v592zM212 -1h-175l969 1435h175zM774 268h224v332zM676 263l322 472h89v-467h95v-70h-95v-198h-89v198h-321v65h-1z" />
    <glyph glyph-name="onehalf" unicode="&#xbd;" horiz-adv-x="1349" 
d="M109 1292h-91v61q65 -6 95 76h85v-730l-89 1v592zM212 -1h-175l969 1435h175zM783 57q0 142 79.5 205t166 115t124.5 80q42 31 42 76t-42.5 84t-113.5 39q-65 0 -113 -31q-38 -33 -42 -81h-101q4 74 75 128q75 58 181 58t181.5 -57.5t75.5 -139.5q0 -81 -75 -128
l-173.5 -102.5t-126.5 -94.5q-44 -46 -48 -139h414v-69h-505z" />
    <glyph glyph-name="threequarters" unicode="&#xbe;" horiz-adv-x="1359" 
d="M304 -1h-175l969 1435h175zM916 268h224v332zM818 263l322 472h89v-467h95v-70h-95v-198h-89v198h-321v65h-1zM112 758q-74 53 -81 138h87q2 -55 51 -86q48 -31 136 -32q89 -1 136 39q48 40 48 104q0 63 -53 95q-52 32 -117 32h-54v70h49q64 0 109 29q45 30 45 92
q0 56 -45 86q-45 29 -128 30q-83 0 -126 -41q-44 -41 -41 -82h-82q-3 80 66 139q69 58 187 58q117 0 187 -50t70 -140q0 -117 -106 -162q68 -22 100 -76q31 -54 20 -123q-10 -69 -79 -123q-70 -53 -187 -52q-118 2 -192 55z" />
    <glyph glyph-name="questiondown" unicode="&#xbf;" horiz-adv-x="1032" 
d="M492 668q164 0 164 -120q-6 -171 -224 -310t-218 -269q0 -129 79 -188q69 -48 203 -52q154 7 239 73t90 195h163q-5 -197 -131.5 -297t-371.5 -103q-186 7 -303 88q-138 91 -138 277t225 338q225 123 223 288v80zM484 1024h175v-194h-175v194z" />
    <glyph glyph-name="Agrave" unicode="&#xc0;" horiz-adv-x="1256" 
d="M510 566h346l-210 657l-393 -1224h-175l460 1435h215l460 -1435h-175l-141 441h-297zM766 1491h-125l-235 279h175z" />
    <glyph glyph-name="Aacute" unicode="&#xc1;" horiz-adv-x="1256" 
d="M510 566h346l-210 657l-393 -1224h-175l460 1435h215l460 -1435h-175l-141 441h-297zM711 1770h175l-235 -279h-125z" />
    <glyph glyph-name="Acircumflex" unicode="&#xc2;" horiz-adv-x="1256" 
d="M510 566h346l-210 657l-393 -1224h-175l460 1435h215l460 -1435h-175l-141 441h-297zM733 1793l241 -302h-125l-203 190l-204 -190h-125l241 302l-1 1h177z" />
    <glyph glyph-name="Atilde" unicode="&#xc3;" horiz-adv-x="1256" 
d="M510 566h346l-210 657l-393 -1224h-175l460 1435h215l460 -1435h-175l-141 441h-297zM519 1626q-38 -10 -38 -23v-76h-114v76q0 62 43 105.5t125 40t159.5 -54.5t96.5 -41t19 23v76h114v-76q0 -61 -30 -105t-92.5 -44t-153.5 54.5t-129 44.5z" />
    <glyph glyph-name="Adieresis" unicode="&#xc4;" horiz-adv-x="1256" 
d="M510 566h346l-210 657l-393 -1224h-175l460 1435h215l460 -1435h-175l-141 441h-297zM583 1549h-175v224h175v-224zM883 1549h-175v224h175v-224z" />
    <glyph glyph-name="Aring" unicode="&#xc5;" horiz-adv-x="1256" 
d="M510 566h346l-210 657l-393 -1224h-175l460 1435h215l460 -1435h-175l-141 441h-297zM646 1800q78 0 133.5 -52t55.5 -125t-55.5 -125t-133.5 -52q-79 0 -134 52t-55 125t55 125t134 52zM532 1623q0 -47 33.5 -80t80.5 -33q48 0 81 33t33 80t-33 80t-81 33
q-47 0 -80.5 -33t-33.5 -80z" />
    <glyph glyph-name="AE" unicode="&#xc6;" horiz-adv-x="1449" 
d="M1390 1429v-138h-578v-462h548v-138h-548v-557h578v-137l-753 -1v444h-242l-142 -441h-175l459 1430h853zM637 566v629l-202 -629h202z" />
    <glyph glyph-name="Ccedilla" unicode="&#xc7;" horiz-adv-x="1253" 
d="M1114 1286q-381 1 -403 1q-209 0 -335 -167q-126 -170 -126 -404t126 -400q126 -167 335 -167q160 0 240 86t105 225h171l-2 -32q-21 -195 -157.5 -310t-356.5 -115q-279 0 -455 210q-175 207 -175 503t175 508q176 209 455 209q22 0 403 -1v-146zM541 -19l-42 -206h134
q73 0 73 -64t-94 -64h-114v-98h121q70 0 131 34t61 124.5t-52 127t-135 36.5l24 111z" />
    <glyph glyph-name="Egrave" unicode="&#xc8;" horiz-adv-x="1200" 
d="M273 701v-567h748l130 -137h-1053v1437h1053l-130 -138h-748v-467h718v-128h-718zM745 1491h-125l-235 279h175z" />
    <glyph glyph-name="Eacute" unicode="&#xc9;" horiz-adv-x="1200" 
d="M273 701v-567h748l130 -137h-1053v1437h1053l-130 -138h-748v-467h718v-128h-718zM690 1770h175l-235 -279h-125z" />
    <glyph glyph-name="Ecircumflex" unicode="&#xca;" horiz-adv-x="1200" 
d="M273 701v-567h748l130 -137h-1053v1437h1053l-130 -138h-748v-467h718v-128h-718zM712 1793l241 -302h-125l-203 190l-204 -190h-125l241 302l-1 1h177z" />
    <glyph glyph-name="Edieresis" unicode="&#xcb;" horiz-adv-x="1200" 
d="M273 701v-567h748l130 -137h-1053v1437h1053l-130 -138h-748v-467h718v-128h-718zM562 1549h-175v224h175v-224zM862 1549h-175v224h175v-224z" />
    <glyph glyph-name="Igrave" unicode="&#xcc;" horiz-adv-x="319" 
d="M253 -1h-175v1305l175 130v-1435zM286 1491h-125l-235 279h175z" />
    <glyph glyph-name="Iacute" unicode="&#xcd;" horiz-adv-x="319" 
d="M253 -1h-175v1305l175 130v-1435zM231 1770h175l-235 -279h-125z" />
    <glyph glyph-name="Icircumflex" unicode="&#xce;" horiz-adv-x="319" 
d="M253 -1h-175v1305l175 130v-1435zM253 1793l241 -302h-125l-203 190l-204 -190h-125l241 302l-1 1h177z" />
    <glyph glyph-name="Idieresis" unicode="&#xcf;" horiz-adv-x="319" 
d="M253 -1h-175v1305l175 130v-1435zM103 1549h-175v224h175v-224zM403 1549h-175v224h175v-224z" />
    <glyph glyph-name="Eth" unicode="&#xd0;" horiz-adv-x="1504" 
d="M265 778v656h613q260 0 416.5 -184.5t156.5 -528.5q0 -375 -171.5 -549.5t-431.5 -174.5l-583 -1v656h-210v126h210zM440 778h317v-126h-317v-518h408q190 0 311.5 134.5t121.5 453.5q0 285 -106.5 429.5t-296.5 144.5h-438v-518z" />
    <glyph glyph-name="Ntilde" unicode="&#xd1;" horiz-adv-x="1165" 
d="M253 1118v-1119l-175 130v1305h175l689 -1119v1119l175 -130v-1305h-175zM471 1626q-38 -10 -38 -23v-76h-114v76q0 62 43 105.5t125 40t159.5 -54.5t96.5 -41t19 23v76h114v-76q0 -61 -30 -105t-92.5 -44t-153.5 54.5t-129 44.5z" />
    <glyph glyph-name="Ograve" unicode="&#xd2;" horiz-adv-x="1317" 
d="M1107.5 1223q176.5 -210 176.5 -508t-176.5 -508t-426.5 -210q-249 0 -425.5 210t-176.5 508t176.5 508t425.5 210q250 0 426.5 -210zM681 1289q-179 0 -305.5 -168.5t-126.5 -404.5q0 -238 126.5 -406.5t305.5 -168.5q180 0 306.5 168.5t126.5 406.5q0 236 -126.5 404.5
t-306.5 168.5zM802 1491h-125l-235 279h175z" />
    <glyph glyph-name="Oacute" unicode="&#xd3;" horiz-adv-x="1317" 
d="M1107.5 1223q176.5 -210 176.5 -508t-176.5 -508t-426.5 -210q-249 0 -425.5 210t-176.5 508t176.5 508t425.5 210q250 0 426.5 -210zM681 1289q-179 0 -305.5 -168.5t-126.5 -404.5q0 -238 126.5 -406.5t305.5 -168.5q180 0 306.5 168.5t126.5 406.5q0 236 -126.5 404.5
t-306.5 168.5zM747 1770h175l-235 -279h-125z" />
    <glyph glyph-name="Ocircumflex" unicode="&#xd4;" horiz-adv-x="1317" 
d="M1107.5 1223q176.5 -210 176.5 -508t-176.5 -508t-426.5 -210q-249 0 -425.5 210t-176.5 508t176.5 508t425.5 210q250 0 426.5 -210zM681 1289q-179 0 -305.5 -168.5t-126.5 -404.5q0 -238 126.5 -406.5t305.5 -168.5q180 0 306.5 168.5t126.5 406.5q0 236 -126.5 404.5
t-306.5 168.5zM769 1793l241 -302h-125l-203 190l-204 -190h-125l241 302l-1 1h177z" />
    <glyph glyph-name="Otilde" unicode="&#xd5;" horiz-adv-x="1317" 
d="M1107.5 1223q176.5 -210 176.5 -508t-176.5 -508t-426.5 -210q-249 0 -425.5 210t-176.5 508t176.5 508t425.5 210q250 0 426.5 -210zM681 1289q-179 0 -305.5 -168.5t-126.5 -404.5q0 -238 126.5 -406.5t305.5 -168.5q180 0 306.5 168.5t126.5 406.5q0 236 -126.5 404.5
t-306.5 168.5zM555 1626q-38 -10 -38 -23v-76h-114v76q0 62 43 105.5t125 40t159.5 -54.5t96.5 -41t19 23v76h114v-76q0 -61 -30 -105t-92.5 -44t-153.5 54.5t-129 44.5z" />
    <glyph glyph-name="Odieresis" unicode="&#xd6;" horiz-adv-x="1317" 
d="M1107.5 1223q176.5 -210 176.5 -508t-176.5 -508t-426.5 -210q-249 0 -425.5 210t-176.5 508t176.5 508t425.5 210q250 0 426.5 -210zM681 1289q-179 0 -305.5 -168.5t-126.5 -404.5q0 -238 126.5 -406.5t305.5 -168.5q180 0 306.5 168.5t126.5 406.5q0 236 -126.5 404.5
t-306.5 168.5zM619 1549h-175v224h175v-224zM919 1549h-175v224h175v-224z" />
    <glyph glyph-name="multiply" unicode="&#xd7;" horiz-adv-x="666" 
d="M330 795l146 145l89 -89l-146 -145l146 -146l-89 -89l-146 146l-146 -147l-89 89l146 147l-146 146l89 89z" />
    <glyph glyph-name="Oslash" unicode="&#xd8;" horiz-adv-x="1317" 
d="M347 350l569 843q-103 90 -235 90q-179 0 -305.5 -167t-126.5 -402q0 -209 98 -364zM358 107l-73 -108h-175l143 211q-174 209 -174 503q0 297 176.5 506.5t425.5 209.5q180 0 321 -108l77 113h175l-146 -216q176 -209 176 -505q0 -297 -176.5 -506.5t-426.5 -209.5
q-181 0 -323 110zM1014 1078l-570 -843q104 -92 237 -92q180 0 306.5 167t126.5 404q0 209 -100 364z" />
    <glyph glyph-name="Ugrave" unicode="&#xd9;" horiz-adv-x="1148" 
d="M924 1433h164v-959q6 -198 -125.5 -337.5t-381.5 -139.5q-249 0 -375.5 139.5t-126.5 337.5v959l170 -130v-802q0 -147 76.5 -250.5t255.5 -103.5q180 0 261.5 103.5t81.5 250.5v932zM704 1491h-125l-235 279h175z" />
    <glyph glyph-name="Uacute" unicode="&#xda;" horiz-adv-x="1148" 
d="M924 1433h164v-959q6 -198 -125.5 -337.5t-381.5 -139.5q-249 0 -375.5 139.5t-126.5 337.5v959l170 -130v-802q0 -147 76.5 -250.5t255.5 -103.5q180 0 261.5 103.5t81.5 250.5v932zM649 1770h175l-235 -279h-125z" />
    <glyph glyph-name="Ucircumflex" unicode="&#xdb;" horiz-adv-x="1148" 
d="M924 1433h164v-959q6 -198 -125.5 -337.5t-381.5 -139.5q-249 0 -375.5 139.5t-126.5 337.5v959l170 -130v-802q0 -147 76.5 -250.5t255.5 -103.5q180 0 261.5 103.5t81.5 250.5v932zM671 1793l241 -302h-125l-203 190l-204 -190h-125l241 302l-1 1h177z" />
    <glyph glyph-name="Udieresis" unicode="&#xdc;" horiz-adv-x="1148" 
d="M924 1433h164v-959q6 -198 -125.5 -337.5t-381.5 -139.5q-249 0 -375.5 139.5t-126.5 337.5v959l170 -130v-802q0 -147 76.5 -250.5t255.5 -103.5q180 0 261.5 103.5t81.5 250.5v932zM521 1549h-175v224h175v-224zM821 1549h-175v224h175v-224z" />
    <glyph glyph-name="Yacute" unicode="&#xdd;" horiz-adv-x="1161" 
d="M508 691l-15 26l-415 717h195l318 -549l427 549h85l-415 -717l-5 -9v-709h-175v692zM656 1770h175l-235 -279h-125z" />
    <glyph glyph-name="Thorn" unicode="&#xde;" horiz-adv-x="1137" 
d="M273 1229h452q157 0 268 -131.5t111 -318.5t-111 -318.5t-268 -131.5l-452 -1v-329h-175v1435h175v-205zM273 1099v-642h357q122 0 208 94t86 228q0 132 -86 226t-208 94h-357z" />
    <glyph glyph-name="germandbls" unicode="&#xdf;" horiz-adv-x="1129" 
d="M406 148h168q174 -2 268 77q94 78 94 203q0 124 -104 187t-232 63h-174v138h165q126 0 215 58q88 58 88 180q0 112 -88 170q-89 58 -252 59h-34q-113 -1 -202 -59q-88 -58 -88 -170v-1060h-173v1060q0 179 138 277q125 89 326 97l32 1h9q229 0 367 -98t138 -277
q0 -229 -208 -317q134 -45 196 -150q61 -106 41 -242t-157 -242q-138 -106 -386 -103h-147v148z" />
    <glyph glyph-name="agrave" unicode="&#xe0;" horiz-adv-x="887" 
d="M700 86q-101 -90 -271 -90q-178 0 -292 81t-114 235t119 235q109 74 229.5 94.5t219.5 32t99 74.5t-67.5 107t-163.5 44t-164 -44q-59 -39 -66 -133h-166q-3 145 109 221q119 81 287 81t287 -81t119 -195v-749zM690 559q-58 -18 -193 -30q-141 -11 -231 -60
q-68 -54 -68 -157t67.5 -147t163.5 -44t184 44q70 39 77 63v331zM564 1081h-125l-235 279h175z" />
    <glyph glyph-name="aacute" unicode="&#xe1;" horiz-adv-x="887" 
d="M700 86q-101 -90 -271 -90q-178 0 -292 81t-114 235t119 235q109 74 229.5 94.5t219.5 32t99 74.5t-67.5 107t-163.5 44t-164 -44q-59 -39 -66 -133h-166q-3 145 109 221q119 81 287 81t287 -81t119 -195v-749zM690 559q-58 -18 -193 -30q-141 -11 -231 -60
q-68 -54 -68 -157t67.5 -147t163.5 -44t184 44q70 39 77 63v331zM509 1360h175l-235 -279h-125z" />
    <glyph glyph-name="acircumflex" unicode="&#xe2;" horiz-adv-x="887" 
d="M700 86q-101 -90 -271 -90q-178 0 -292 81t-114 235t119 235q109 74 229.5 94.5t219.5 32t99 74.5t-67.5 107t-163.5 44t-164 -44q-59 -39 -66 -133h-166q-3 145 109 221q119 81 287 81t287 -81t119 -195v-749zM690 559q-58 -18 -193 -30q-141 -11 -231 -60
q-68 -54 -68 -157t67.5 -147t163.5 -44t184 44q70 39 77 63v331zM532 1383l241 -302h-125l-203 190l-204 -190h-125l241 302l-1 1h177z" />
    <glyph glyph-name="atilde" unicode="&#xe3;" horiz-adv-x="887" 
d="M700 86q-101 -90 -271 -90q-178 0 -292 81t-114 235t119 235q109 74 229.5 94.5t219.5 32t99 74.5t-67.5 107t-163.5 44t-164 -44q-59 -39 -66 -133h-166q-3 145 109 221q119 81 287 81t287 -81t119 -195v-749zM690 559q-58 -18 -193 -30q-141 -11 -231 -60
q-68 -54 -68 -157t67.5 -147t163.5 -44t184 44q70 39 77 63v331zM318 1216q-38 -10 -38 -23v-76h-114v76q0 62 43 105.5t125 40t159.5 -54.5t96.5 -41t19 23v76h114v-76q0 -61 -30 -105t-92.5 -44t-153.5 54.5t-129 44.5z" />
    <glyph glyph-name="adieresis" unicode="&#xe4;" horiz-adv-x="887" 
d="M700 86q-101 -90 -271 -90q-178 0 -292 81t-114 235t119 235q109 74 229.5 94.5t219.5 32t99 74.5t-67.5 107t-163.5 44t-164 -44q-59 -39 -66 -133h-166q-3 145 109 221q119 81 287 81t287 -81t119 -195v-749zM690 559q-58 -18 -193 -30q-141 -11 -231 -60
q-68 -54 -68 -157t67.5 -147t163.5 -44t184 44q70 39 77 63v331zM382 1139h-175v224h175v-224zM682 1139h-175v224h175v-224z" />
    <glyph glyph-name="aring" unicode="&#xe5;" horiz-adv-x="887" 
d="M700 86q-101 -90 -271 -90q-178 0 -292 81t-114 235t119 235q109 74 229.5 94.5t219.5 32t99 74.5t-67.5 107t-163.5 44t-164 -44q-59 -39 -66 -133h-166q-3 145 109 221q119 81 287 81t287 -81t119 -195v-749zM690 559q-58 -18 -193 -30q-141 -11 -231 -60
q-68 -54 -68 -157t67.5 -147t163.5 -44t184 44q70 39 77 63v331zM444 1390q78 0 133.5 -52t55.5 -125t-55.5 -125t-133.5 -52q-79 0 -134 52t-55 125t55 125t134 52zM330 1213q0 -47 33.5 -80t80.5 -33q48 0 81 33t33 80t-33 80t-81 33q-47 0 -80.5 -33t-33.5 -80z" />
    <glyph glyph-name="ae" unicode="&#xe6;" horiz-adv-x="1697" 
d="M690 579q-58 -38 -193 -50q-141 -11 -231 -60q-68 -54 -68 -157t67.5 -147t163.5 -44t184 44q70 39 77 63v351zM1490 581q-16 114 -86 201q-91 113 -220 113t-219 -113q-70 -87 -86 -201h611zM837 151q-212 -155 -408 -155q-178 0 -292 81t-114 235t119 235
q109 74 229.5 94.5t219.5 32t99 74.5t-67.5 107t-163.5 44t-164 -44q-59 -39 -66 -133h-166q-3 145 109 221q119 81 287 81t287 -81q55 -37 84 -82q5 6 11 11q142 150 343 150q202 0 344 -150t133 -416h-784q13 -126 88 -219q90 -113 241 -114q96 0 174 44q89 49 106 153
h156q-7 -135 -149 -241q-119 -81 -287 -81q-223 -1 -365 149z" />
    <glyph glyph-name="ccedilla" unicode="&#xe7;" horiz-adv-x="995" 
d="M868 895q-309 1 -319 1q-159 -1 -249.5 -114t-90.5 -272q0 -160 90.5 -273t241.5 -114q106 0 169.5 56.5t70.5 150.5h176q-7 -145 -122.5 -238.5t-293.5 -93.5q-223 -1 -365.5 149t-142.5 363q0 212 142.5 362t373.5 149h319v-126zM472 -19l-42 -206h134q73 0 73 -64
t-94 -64h-114v-98h121q70 0 131 34t61 124.5t-52 127t-135 36.5l24 111z" />
    <glyph glyph-name="egrave" unicode="&#xe8;" horiz-adv-x="1026" 
d="M281 581h544q-16 114 -86 201q-91 113 -220 113t-219 -113q-70 -87 -88 -286q3 -166 88 -259q90 -113 241 -114q96 0 174 44q89 49 106 153h156q-7 -135 -149 -241q-119 -81 -287 -81q-223 -1 -365.5 149t-142.5 363q0 212 142.5 362t343.5 150q202 0 344 -150t133 -416
h-645zM635 1081h-125l-235 279h175z" />
    <glyph glyph-name="eacute" unicode="&#xe9;" horiz-adv-x="1026" 
d="M281 581h544q-16 114 -86 201q-91 113 -220 113t-219 -113q-70 -87 -88 -286q3 -166 88 -259q90 -113 241 -114q96 0 174 44q89 49 106 153h156q-7 -135 -149 -241q-119 -81 -287 -81q-223 -1 -365.5 149t-142.5 363q0 212 142.5 362t343.5 150q202 0 344 -150t133 -416
h-645zM580 1360h175l-235 -279h-125z" />
    <glyph glyph-name="ecircumflex" unicode="&#xea;" horiz-adv-x="1026" 
d="M281 581h544q-16 114 -86 201q-91 113 -220 113t-219 -113q-70 -87 -88 -286q3 -166 88 -259q90 -113 241 -114q96 0 174 44q89 49 106 153h156q-7 -135 -149 -241q-119 -81 -287 -81q-223 -1 -365.5 149t-142.5 363q0 212 142.5 362t343.5 150q202 0 344 -150t133 -416
h-645zM602 1383l241 -302h-125l-203 190l-204 -190h-125l241 302l-1 1h177z" />
    <glyph glyph-name="edieresis" unicode="&#xeb;" horiz-adv-x="1026" 
d="M281 581h544q-16 114 -86 201q-91 113 -220 113t-219 -113q-70 -87 -88 -286q3 -166 88 -259q90 -113 241 -114q96 0 174 44q89 49 106 153h156q-7 -135 -149 -241q-119 -81 -287 -81q-223 -1 -365.5 149t-142.5 363q0 212 142.5 362t343.5 150q202 0 344 -150t133 -416
h-645zM452 1139h-175v224h175v-224zM752 1139h-175v224h175v-224z" />
    <glyph glyph-name="igrave" unicode="&#xec;" horiz-adv-x="255" 
d="M48 897l175 130v-1028h-175v898zM256 1081h-125l-235 279h175z" />
    <glyph glyph-name="iacute" unicode="&#xed;" horiz-adv-x="255" 
d="M48 897l175 130v-1028h-175v898zM201 1360h175l-235 -279h-125z" />
    <glyph glyph-name="icircumflex" unicode="&#xee;" horiz-adv-x="255" 
d="M48 897l175 130v-1028h-175v898zM223 1383l241 -302h-125l-203 190l-204 -190h-125l241 302l-1 1h177z" />
    <glyph glyph-name="idieresis" unicode="&#xef;" horiz-adv-x="255" 
d="M48 897l175 130v-1028h-175v898zM73 1139h-175v224h175v-224zM373 1139h-175v224h175v-224z" />
    <glyph glyph-name="eth" unicode="&#xf0;" horiz-adv-x="1147" 
d="M223 507q0 -217 93 -300t225 -83q143 0 240.5 83t97.5 300q0 232 -92.5 315t-225.5 83q-152 0 -245 -78t-93 -320zM748 1262q-45 85 -102 171h217q32 -65 59 -129l239 59l29 -115l-223 -55q116 -315 115 -596q-6 -290 -145.5 -445t-395.5 -155q-205 0 -349.5 115
t-144.5 402.5t144.5 402.5t369.5 115q206 0 327 -132v8q-32 122 -87 245l-296 -73l-29 115z" />
    <glyph glyph-name="ntilde" unicode="&#xf1;" 
d="M228 -2h-175v1024l175 -119q69 119 294 119q226 0 339.5 -120t113.5 -282v-622h-175v622q0 109 -66 192t-215 83q-289 0 -291 -239v-658zM388 1216q-38 -10 -38 -23v-76h-114v76q0 62 43 105.5t125 40t159.5 -54.5t96.5 -41t19 23v76h114v-76q0 -61 -30 -105t-92.5 -44
t-153.5 54.5t-129 44.5z" />
    <glyph glyph-name="ograve" unicode="&#xf2;" horiz-adv-x="1027" 
d="M853 872q142 -150 142 -362q0 -213 -142 -363t-344 -150q-201 0 -343.5 150t-142.5 363q0 212 142.5 362t343.5 150q202 0 344 -150zM509 895q-129 0 -219.5 -113t-90.5 -272q0 -160 90.5 -273t219.5 -113t220 113t91 273q0 159 -91 272t-220 113zM629 1081h-125
l-235 279h175z" />
    <glyph glyph-name="oacute" unicode="&#xf3;" horiz-adv-x="1027" 
d="M853 872q142 -150 142 -362q0 -213 -142 -363t-344 -150q-201 0 -343.5 150t-142.5 363q0 212 142.5 362t343.5 150q202 0 344 -150zM509 895q-129 0 -219.5 -113t-90.5 -272q0 -160 90.5 -273t219.5 -113t220 113t91 273q0 159 -91 272t-220 113zM574 1360h175
l-235 -279h-125z" />
    <glyph glyph-name="ocircumflex" unicode="&#xf4;" horiz-adv-x="1027" 
d="M853 872q142 -150 142 -362q0 -213 -142 -363t-344 -150q-201 0 -343.5 150t-142.5 363q0 212 142.5 362t343.5 150q202 0 344 -150zM509 895q-129 0 -219.5 -113t-90.5 -272q0 -160 90.5 -273t219.5 -113t220 113t91 273q0 159 -91 272t-220 113zM597 1383l241 -302
h-125l-203 190l-204 -190h-125l241 302l-1 1h177z" />
    <glyph glyph-name="otilde" unicode="&#xf5;" horiz-adv-x="1027" 
d="M853 872q142 -150 142 -362q0 -213 -142 -363t-344 -150q-201 0 -343.5 150t-142.5 363q0 212 142.5 362t343.5 150q202 0 344 -150zM509 895q-129 0 -219.5 -113t-90.5 -272q0 -160 90.5 -273t219.5 -113t220 113t91 273q0 159 -91 272t-220 113zM383 1216
q-38 -10 -38 -23v-76h-114v76q0 62 43 105.5t125 40t159.5 -54.5t96.5 -41t19 23v76h114v-76q0 -61 -30 -105t-92.5 -44t-153.5 54.5t-129 44.5z" />
    <glyph glyph-name="odieresis" unicode="&#xf6;" horiz-adv-x="1027" 
d="M853 872q142 -150 142 -362q0 -213 -142 -363t-344 -150q-201 0 -343.5 150t-142.5 363q0 212 142.5 362t343.5 150q202 0 344 -150zM509 895q-129 0 -219.5 -113t-90.5 -272q0 -160 90.5 -273t219.5 -113t220 113t91 273q0 159 -91 272t-220 113zM447 1139h-175v224h175
v-224zM747 1139h-175v224h175v-224z" />
    <glyph glyph-name="divide" unicode="&#xf7;" horiz-adv-x="963" 
d="M571 219h-175v224h175v-224zM571 749h-175v224h175v-224zM917 659v-126h-868v126h868z" />
    <glyph glyph-name="oslash" unicode="&#xf8;" horiz-adv-x="1056" 
d="M381 173q65 -43 144 -43q129 0 220 113t91 273q0 134 -64 235zM279 280l390 578q-65 43 -144 43q-129 0 -219.5 -113t-90.5 -272q0 -134 64 -236zM955 1023l-93 -138q4 -3 7 -7q142 -150 142 -362q0 -213 -142 -363t-344 -150q-121 0 -222 55l-39 -58h-175l99 146
q-3 4 -6 7q-143 150 -143 363q0 212 142.5 362t343.5 150q122 0 222 -55l34 50h174z" />
    <glyph glyph-name="ugrave" unicode="&#xf9;" 
d="M780 1022h175v-1024l-165 129q-99 -129 -304 -129q-226 0 -339.5 120t-113.5 282v622h175v-622q0 -109 66 -192t215 -83q289 10 291 239v658zM614 1081h-125l-235 279h175z" />
    <glyph glyph-name="uacute" unicode="&#xfa;" 
d="M780 1022h175v-1024l-165 129q-99 -129 -304 -129q-226 0 -339.5 120t-113.5 282v622h175v-622q0 -109 66 -192t215 -83q289 10 291 239v658zM559 1360h175l-235 -279h-125z" />
    <glyph glyph-name="ucircumflex" unicode="&#xfb;" 
d="M780 1022h175v-1024l-165 129q-99 -129 -304 -129q-226 0 -339.5 120t-113.5 282v622h175v-622q0 -109 66 -192t215 -83q289 10 291 239v658zM582 1383l241 -302h-125l-203 190l-204 -190h-125l241 302l-1 1h177z" />
    <glyph glyph-name="udieresis" unicode="&#xfc;" 
d="M780 1022h175v-1024l-165 129q-99 -129 -304 -129q-226 0 -339.5 120t-113.5 282v622h175v-622q0 -109 66 -192t215 -83q289 10 291 239v658zM432 1139h-175v224h175v-224zM732 1139h-175v224h175v-224z" />
    <glyph glyph-name="yacute" unicode="&#xfd;" horiz-adv-x="1067" 
d="M460 -32l-411 1059h75l423 -828l323 828h175l-485 -1257q-53 -128 -123 -168t-152 -45t-227 -1v157q155 -4 231 7t116 83zM612 1360h175l-235 -279h-125z" />
    <glyph glyph-name="thorn" unicode="&#xfe;" 
d="M198 373q22 -75 72 -136q90 -113 219 -113t220 113t91 273q0 159 -91 272t-220 113t-219 -113q-50 -61 -72 -136v-273zM198 903q129 119 304 119q196 0 334.5 -150t138.5 -362q0 -213 -138.5 -363t-334.5 -150q-175 0 -304 119v-517h-175v1834h175v-530z" />
    <glyph glyph-name="ydieresis" unicode="&#xff;" horiz-adv-x="1067" 
d="M460 -32l-411 1059h75l423 -828l323 828h175l-485 -1257q-53 -128 -123 -168t-152 -45t-227 -1v157q155 -4 231 7t116 83zM485 1139h-175v224h175v-224zM785 1139h-175v224h175v-224z" />
    <glyph glyph-name="Amacron" unicode="&#x100;" horiz-adv-x="1256" 
d="M510 566h346l-210 657l-393 -1224h-175l460 1435h215l460 -1435h-175l-141 441h-297zM915 1716v-126h-539v126h539z" />
    <glyph glyph-name="amacron" unicode="&#x101;" horiz-adv-x="887" 
d="M700 86q-101 -90 -271 -90q-178 0 -292 81t-114 235t119 235q109 74 229.5 94.5t219.5 32t99 74.5t-67.5 107t-163.5 44t-164 -44q-59 -39 -66 -133h-166q-3 145 109 221q119 81 287 81t287 -81t119 -195v-749zM690 559q-58 -18 -193 -30q-141 -11 -231 -60
q-68 -54 -68 -157t67.5 -147t163.5 -44t184 44q70 39 77 63v331zM714 1306v-126h-539v126h539z" />
    <glyph glyph-name="Abreve" unicode="&#x102;" horiz-adv-x="1256" 
d="M510 566h346l-210 657l-393 -1224h-175l460 1435h215l460 -1435h-175l-141 441h-297zM937 1742q-18 -80 -79 -141q-87 -89 -211 -89t-212 89q-61 61 -80 141h114q14 -33 42 -59q56 -54 136 -54q79 0 135 54q27 26 41 59h114z" />
    <glyph glyph-name="abreve" unicode="&#x103;" horiz-adv-x="887" 
d="M700 86q-101 -90 -271 -90q-178 0 -292 81t-114 235t119 235q109 74 229.5 94.5t219.5 32t99 74.5t-67.5 107t-163.5 44t-164 -44q-59 -39 -66 -133h-166q-3 145 109 221q119 81 287 81t287 -81t119 -195v-749zM690 559q-58 -18 -193 -30q-141 -11 -231 -60
q-68 -54 -68 -157t67.5 -147t163.5 -44t184 44q70 39 77 63v331zM735 1332q-18 -80 -79 -141q-87 -89 -211 -89t-212 89q-61 61 -80 141h114q14 -33 42 -59q56 -54 136 -54q79 0 135 54q27 26 41 59h114z" />
    <glyph glyph-name="Aogonek" unicode="&#x104;" horiz-adv-x="1256" 
d="M510 566h346l-210 657l-393 -1224h-175l460 1435h215l460 -1435h-175l-141 441h-297zM1058 -14q-233 -195 -135 -367q127 -152 371 -52v118q-155 -90 -248 -4q-74 115 154 305h-142z" />
    <glyph glyph-name="aogonek" unicode="&#x105;" horiz-adv-x="887" 
d="M700 86q-101 -90 -271 -90q-178 0 -292 81t-114 235t119 235q109 74 229.5 94.5t219.5 32t99 74.5t-67.5 107t-163.5 44t-164 -44q-59 -39 -66 -133h-166q-3 145 109 221q119 81 287 81t287 -81t119 -195v-749zM690 559q-58 -18 -193 -30q-141 -11 -231 -60
q-68 -54 -68 -157t67.5 -147t163.5 -44t184 44q70 39 77 63v331zM679 5q-233 -195 -135 -367q127 -152 371 -52v118q-155 -90 -248 -4q-74 115 154 305h-142z" />
    <glyph glyph-name="Cacute" unicode="&#x106;" horiz-adv-x="1253" 
d="M1114 1286q-381 1 -403 1q-209 0 -335 -167q-126 -170 -126 -404t126 -400q126 -167 335 -167q160 0 240 86t105 225h171l-2 -32q-21 -195 -157.5 -310t-356.5 -115q-279 0 -455 210q-175 207 -175 503t175 508q176 209 455 209q22 0 403 -1v-146zM719 1770h175
l-235 -279h-125z" />
    <glyph glyph-name="cacute" unicode="&#x107;" horiz-adv-x="995" 
d="M868 895q-309 1 -319 1q-159 -1 -249.5 -114t-90.5 -272q0 -160 90.5 -273t241.5 -114q106 0 169.5 56.5t70.5 150.5h176q-7 -145 -122.5 -238.5t-293.5 -93.5q-223 -1 -365.5 149t-142.5 363q0 212 142.5 362t373.5 149h319v-126zM560 1360h175l-235 -279h-125z" />
    <glyph glyph-name="Ccircumflex" unicode="&#x108;" horiz-adv-x="1253" 
d="M1114 1286q-381 1 -403 1q-209 0 -335 -167q-126 -170 -126 -404t126 -400q126 -167 335 -167q160 0 240 86t105 225h171l-2 -32q-21 -195 -157.5 -310t-356.5 -115q-279 0 -455 210q-175 207 -175 503t175 508q176 209 455 209q22 0 403 -1v-146zM742 1793l241 -302
h-125l-203 190l-204 -190h-125l241 302l-1 1h177z" />
    <glyph glyph-name="ccircumflex" unicode="&#x109;" horiz-adv-x="995" 
d="M868 895q-309 1 -319 1q-159 -1 -249.5 -114t-90.5 -272q0 -160 90.5 -273t241.5 -114q106 0 169.5 56.5t70.5 150.5h176q-7 -145 -122.5 -238.5t-293.5 -93.5q-223 -1 -365.5 149t-142.5 363q0 212 142.5 362t373.5 149h319v-126zM583 1383l241 -302h-125l-203 190
l-204 -190h-125l241 302l-1 1h177z" />
    <glyph glyph-name="Cdotaccent" unicode="&#x10a;" horiz-adv-x="1253" 
d="M1114 1286q-381 1 -403 1q-209 0 -335 -167q-126 -170 -126 -404t126 -400q126 -167 335 -167q160 0 240 86t105 225h171l-2 -32q-21 -195 -157.5 -310t-356.5 -115q-279 0 -455 210q-175 207 -175 503t175 508q176 209 455 209q22 0 403 -1v-146zM747.5 1740.5
q38.5 -38.5 38.5 -93.5t-38.5 -93.5t-93.5 -38.5t-93.5 38.5t-38.5 93.5t38.5 93.5t93.5 38.5t93.5 -38.5z" />
    <glyph glyph-name="cdotaccent" unicode="&#x10b;" horiz-adv-x="995" 
d="M868 895q-309 1 -319 1q-159 -1 -249.5 -114t-90.5 -272q0 -160 90.5 -273t241.5 -114q106 0 169.5 56.5t70.5 150.5h176q-7 -145 -122.5 -238.5t-293.5 -93.5q-223 -1 -365.5 149t-142.5 363q0 212 142.5 362t373.5 149h319v-126zM588.5 1330.5q38.5 -38.5 38.5 -93.5
t-38.5 -93.5t-93.5 -38.5t-93.5 38.5t-38.5 93.5t38.5 93.5t93.5 38.5t93.5 -38.5z" />
    <glyph glyph-name="Ccaron" unicode="&#x10c;" horiz-adv-x="1253" 
d="M1114 1286q-381 1 -403 1q-209 0 -335 -167q-126 -170 -126 -404t126 -400q126 -167 335 -167q160 0 240 86t105 225h171l-2 -32q-21 -195 -157.5 -310t-356.5 -115q-279 0 -455 210q-175 207 -175 503t175 508q176 209 455 209q22 0 403 -1v-146zM567 1492l-241 302h125
l203 -190l204 190h125l-241 -302l1 -1h-177z" />
    <glyph glyph-name="ccaron" unicode="&#x10d;" horiz-adv-x="995" 
d="M868 895q-309 1 -319 1q-159 -1 -249.5 -114t-90.5 -272q0 -160 90.5 -273t241.5 -114q106 0 169.5 56.5t70.5 150.5h176q-7 -145 -122.5 -238.5t-293.5 -93.5q-223 -1 -365.5 149t-142.5 363q0 212 142.5 362t373.5 149h319v-126zM408 1082l-241 302h125l203 -190
l204 190h125l-241 -302l1 -1h-177z" />
    <glyph glyph-name="Dcaron" unicode="&#x10e;" horiz-adv-x="1317" 
d="M253 1017v-883h408q190 0 311.5 134.5t121.5 453.5q0 285 -106.5 429.5t-296.5 144.5h-613v138h613q260 0 416.5 -184.5t156.5 -528.5q0 -375 -171.5 -549.5t-431.5 -174.5h-583v1150zM584 1492l-241 302h125l203 -190l204 190h125l-241 -302l1 -1h-177z" />
    <glyph glyph-name="dcaron" unicode="&#x10f;" horiz-adv-x="1292" 
d="M800 696q-12 55 -87 127t-204 72t-220 -113t-91 -272q0 -160 91 -273t220 -113q119 0 194 52t97 117v403zM800 1302l175 130v-1433l-175 117q-129 -119 -304 -119q-196 0 -334.5 150t-138.5 363q0 212 138.5 362t334.5 150q175 0 304 -119v399zM1194 1432h123
q59 -172 -84 -344h-88q126 172 49 344z" />
    <glyph glyph-name="Dcroat" unicode="&#x110;" horiz-adv-x="1504" 
d="M265 778v656h613q260 0 416.5 -184.5t156.5 -528.5q0 -375 -171.5 -549.5t-431.5 -174.5l-583 -1v656h-210v126h210zM440 778h317v-126h-317v-518h408q190 0 311.5 134.5t121.5 453.5q0 285 -106.5 429.5t-296.5 144.5h-438v-518z" />
    <glyph glyph-name="dcroat" unicode="&#x111;" 
d="M800 696q-12 55 -87 127t-204 72t-220 -113t-91 -272q0 -160 91 -273t220 -113q119 0 194 52t97 117v403zM800 1301v131h175v-131h179v-126h-179v-1176h-175v117q-129 -119 -304 -119q-196 0 -334.5 150t-138.5 363q0 212 138.5 362t334.5 150q175 0 304 -119v272h-178
v126h178z" />
    <glyph glyph-name="Emacron" unicode="&#x112;" horiz-adv-x="1200" 
d="M273 701v-567h748l130 -137h-1053v1437h1053l-130 -138h-748v-467h718v-128h-718zM894 1716v-126h-539v126h539z" />
    <glyph glyph-name="emacron" unicode="&#x113;" horiz-adv-x="1026" 
d="M281 581h544q-16 114 -86 201q-91 113 -220 113t-219 -113q-70 -87 -88 -286q3 -166 88 -259q90 -113 241 -114q96 0 174 44q89 49 106 153h156q-7 -135 -149 -241q-119 -81 -287 -81q-223 -1 -365.5 149t-142.5 363q0 212 142.5 362t343.5 150q202 0 344 -150t133 -416
h-645zM784 1306v-126h-539v126h539z" />
    <glyph glyph-name="Ebreve" unicode="&#x114;" horiz-adv-x="1200" 
d="M273 701v-567h748l130 -137h-1053v1437h1053l-130 -138h-748v-467h718v-128h-718zM916 1742q-18 -80 -79 -141q-87 -89 -211 -89t-212 89q-61 61 -80 141h114q14 -33 42 -59q56 -54 136 -54q79 0 135 54q27 26 41 59h114z" />
    <glyph glyph-name="ebreve" unicode="&#x115;" horiz-adv-x="1026" 
d="M281 581h544q-16 114 -86 201q-91 113 -220 113t-219 -113q-70 -87 -88 -286q3 -166 88 -259q90 -113 241 -114q96 0 174 44q89 49 106 153h156q-7 -135 -149 -241q-119 -81 -287 -81q-223 -1 -365.5 149t-142.5 363q0 212 142.5 362t343.5 150q202 0 344 -150t133 -416
h-645zM806 1332q-18 -80 -79 -141q-87 -89 -211 -89t-212 89q-61 61 -80 141h114q14 -33 42 -59q56 -54 136 -54q79 0 135 54q27 26 41 59h114z" />
    <glyph glyph-name="Edotaccent" unicode="&#x116;" horiz-adv-x="1200" 
d="M273 701v-567h748l130 -137h-1053v1437h1053l-130 -138h-748v-467h718v-128h-718zM718.5 1740.5q38.5 -38.5 38.5 -93.5t-38.5 -93.5t-93.5 -38.5t-93.5 38.5t-38.5 93.5t38.5 93.5t93.5 38.5t93.5 -38.5z" />
    <glyph glyph-name="edotaccent" unicode="&#x117;" horiz-adv-x="1026" 
d="M281 581h544q-16 114 -86 201q-91 113 -220 113t-219 -113q-70 -87 -88 -286q3 -166 88 -259q90 -113 241 -114q96 0 174 44q89 49 106 153h156q-7 -135 -149 -241q-119 -81 -287 -81q-223 -1 -365.5 149t-142.5 363q0 212 142.5 362t343.5 150q202 0 344 -150t133 -416
h-645zM608.5 1330.5q38.5 -38.5 38.5 -93.5t-38.5 -93.5t-93.5 -38.5t-93.5 38.5t-38.5 93.5t38.5 93.5t93.5 38.5t93.5 -38.5z" />
    <glyph glyph-name="Eogonek" unicode="&#x118;" horiz-adv-x="1200" 
d="M273 701v-567h748l130 -137h-1053v1437h1053l-130 -138h-748v-467h718v-128h-718zM915 -15q-233 -195 -135 -367q127 -152 371 -52v118q-155 -90 -248 -4q-74 115 154 305h-142z" />
    <glyph glyph-name="eogonek" unicode="&#x119;" horiz-adv-x="1026" 
d="M571 -1q-15 -1 -30 -1q-223 -1 -365.5 149t-142.5 363q0 212 142.5 362t343.5 150q202 0 344 -150t133 -416h-645l-70 125h544q-16 114 -86 201q-91 113 -220 113t-219 -113q-70 -87 -88 -286q3 -166 88 -259q90 -113 241 -114q96 0 174 44q89 49 106 153h156
q-7 -135 -149 -241q-34 -23 -73 -40q-207 -180 -136 -290q93 -86 248 4v-118q-244 -100 -371 52q-84 147 75 312z" />
    <glyph glyph-name="Ecaron" unicode="&#x11a;" horiz-adv-x="1200" 
d="M273 701v-567h748l130 -137h-1053v1437h1053l-130 -138h-748v-467h718v-128h-718zM537 1492l-241 302h125l203 -190l204 190h125l-241 -302l1 -1h-177z" />
    <glyph glyph-name="ecaron" unicode="&#x11b;" horiz-adv-x="1026" 
d="M281 581h544q-16 114 -86 201q-91 113 -220 113t-219 -113q-70 -87 -88 -286q3 -166 88 -259q90 -113 241 -114q96 0 174 44q89 49 106 153h156q-7 -135 -149 -241q-119 -81 -287 -81q-223 -1 -365.5 149t-142.5 363q0 212 142.5 362t343.5 150q202 0 344 -150t133 -416
h-645zM427 1082l-241 302h125l203 -190l204 190h125l-241 -302l1 -1h-177z" />
    <glyph glyph-name="Gcircumflex" unicode="&#x11c;" horiz-adv-x="1253" 
d="M1052 135l-9 -7q-112 -135 -332 -125q-279 0 -455 210q-175 207 -175 505t175 506q176 209 455 209q210 10 356.5 -95t159.5 -278v-24h-181v23q5 96 -95 167q-100 63 -240 61q-209 0 -335 -167q-126 -166 -126 -402t126 -402q126 -167 335 -167q160 -11 250.5 78.5
t90.5 292.5v83h-284l120 136h339v-740zM742 1793l241 -302h-125l-203 190l-204 -190h-125l241 302l-1 1h177z" />
    <glyph glyph-name="gcircumflex" unicode="&#x11d;" horiz-adv-x="1003" 
d="M491 894q-109 0 -186 -54.5t-77 -130.5q0 -77 77 -131t186 -54q110 0 187 54t77 131q0 76 -77 130.5t-187 54.5zM825 1085l119 59l-171 -211q155 -94 155 -224t-128 -222t-309 -92q-55 0 -143 17q-31 -3 -53 -26q-26 -26 -26 -63t20.5 -63t78.5 -48q41 -16 236 -83
t268 -120.5t73 -150.5v-18q0 -78 -73 -141q-73 -64 -227 -94q-370 -19 -571 77v57q251 -26 575 -5q63 20 92 50q30 30 30 74q0 43 -30 74q-29 29 -202 83q-308 95 -378.5 153.5t-70.5 144.5q0 87 70 148q14 12 29 21q-4 3 -7 5q-128 92 -128 222q0 129 128 221t309 92
q103 0 159 -23l166 82h-113l-203 190l-204 -190h-125l241 302l-1 1h177l-1 -1z" />
    <glyph glyph-name="Gbreve" unicode="&#x11e;" horiz-adv-x="1253" 
d="M1052 135l-9 -7q-112 -135 -332 -125q-279 0 -455 210q-175 207 -175 505t175 506q176 209 455 209q210 10 356.5 -95t159.5 -278v-24h-181v23q5 96 -95 167q-100 63 -240 61q-209 0 -335 -167q-126 -166 -126 -402t126 -402q126 -167 335 -167q160 -11 250.5 78.5
t90.5 292.5v83h-284l120 136h339v-740zM945 1742q-18 -80 -79 -141q-87 -89 -211 -89t-212 89q-61 61 -80 141h114q14 -33 42 -59q56 -54 136 -54q79 0 135 54q27 26 41 59h114z" />
    <glyph glyph-name="gbreve" unicode="&#x11f;" horiz-adv-x="1003" 
d="M491 894q-109 0 -186 -54.5t-77 -130.5q0 -77 77 -131t186 -54q110 0 187 54t77 131q0 76 -77 130.5t-187 54.5zM160.5 168.5q-70.5 58.5 -70.5 144.5q0 87 70 148q14 12 29 21q-4 3 -7 5q-128 92 -128 222q0 129 128 221t309 92q103 0 159 -23l294 145l-171 -211
q155 -94 155 -224t-128 -222t-309 -92q-55 0 -143 17q-31 -3 -53 -26q-26 -26 -26 -63t20.5 -63t78.5 -48q41 -16 236 -83t268 -120.5t73 -150.5v-18q0 -78 -73 -141q-73 -64 -227 -94q-370 -19 -571 77v57q251 -26 575 -5q63 20 92 50q30 30 30 74q0 43 -30 74
q-29 29 -202 83q-308 95 -378.5 153.5zM791 1332q-18 -80 -79 -141q-87 -89 -211 -89t-212 89q-61 61 -80 141h114q14 -33 42 -59q56 -54 136 -54q79 0 135 54q27 26 41 59h114z" />
    <glyph glyph-name="Gdotaccent" unicode="&#x120;" horiz-adv-x="1253" 
d="M1052 135l-9 -7q-112 -135 -332 -125q-279 0 -455 210q-175 207 -175 505t175 506q176 209 455 209q210 10 356.5 -95t159.5 -278v-24h-181v23q5 96 -95 167q-100 63 -240 61q-209 0 -335 -167q-126 -166 -126 -402t126 -402q126 -167 335 -167q160 -11 250.5 78.5
t90.5 292.5v83h-284l120 136h339v-740zM747.5 1740.5q38.5 -38.5 38.5 -93.5t-38.5 -93.5t-93.5 -38.5t-93.5 38.5t-38.5 93.5t38.5 93.5t93.5 38.5t93.5 -38.5z" />
    <glyph glyph-name="gdotaccent" unicode="&#x121;" horiz-adv-x="1003" 
d="M491 894q-109 0 -186 -54.5t-77 -130.5q0 -77 77 -131t186 -54q110 0 187 54t77 131q0 76 -77 130.5t-187 54.5zM160.5 168.5q-70.5 58.5 -70.5 144.5q0 87 70 148q14 12 29 21q-4 3 -7 5q-128 92 -128 222q0 129 128 221t309 92q103 0 159 -23l294 145l-171 -211
q155 -94 155 -224t-128 -222t-309 -92q-55 0 -143 17q-31 -3 -53 -26q-26 -26 -26 -63t20.5 -63t78.5 -48q41 -16 236 -83t268 -120.5t73 -150.5v-18q0 -78 -73 -141q-73 -64 -227 -94q-370 -19 -571 77v57q251 -26 575 -5q63 20 92 50q30 30 30 74q0 43 -30 74
q-29 29 -202 83q-308 95 -378.5 153.5zM593.5 1330.5q38.5 -38.5 38.5 -93.5t-38.5 -93.5t-93.5 -38.5t-93.5 38.5t-38.5 93.5t38.5 93.5t93.5 38.5t93.5 -38.5z" />
    <glyph glyph-name="Gcommaaccent" unicode="&#x122;" horiz-adv-x="1253" 
d="M1052 135l-9 -7q-112 -135 -332 -125q-279 0 -455 210q-175 207 -175 505t175 506q176 209 455 209q210 10 356.5 -95t159.5 -278v-24h-181v23q5 96 -95 167q-100 63 -240 61q-209 0 -335 -167q-126 -166 -126 -402t126 -402q126 -167 335 -167q160 -11 250.5 78.5
t90.5 292.5v83h-284l120 136h339v-740zM651 -69h140q18 -227 -146 -365h-130q174 138 136 365z" />
    <glyph glyph-name="gcommaaccent" unicode="&#x123;" horiz-adv-x="1003" 
d="M491 894q-109 0 -186 -54.5t-77 -130.5q0 -77 77 -131t186 -54q110 0 187 54t77 131q0 76 -77 130.5t-187 54.5zM160.5 168.5q-70.5 58.5 -70.5 144.5q0 87 70 148q14 12 29 21q-4 3 -7 5q-128 92 -128 222q0 129 128 221t309 92q103 0 159 -23l294 145l-171 -211
q155 -94 155 -224t-128 -222t-309 -92q-55 0 -143 17q-31 -3 -53 -26q-26 -26 -26 -63t20.5 -63t78.5 -48q41 -16 236 -83t268 -120.5t73 -150.5v-18q0 -78 -73 -141q-73 -64 -227 -94q-370 -19 -571 77v57q251 -26 575 -5q63 20 92 50q30 30 30 74q0 43 -30 74
q-29 29 -202 83q-308 95 -378.5 153.5zM545 1157h-122q-60 172 84 344h87q-126 -172 -49 -344z" />
    <glyph glyph-name="Hcircumflex" unicode="&#x124;" horiz-adv-x="1156" 
d="M315 788h603v646h175v-1435h-175v647h-503zM233 -1h-175v1435h175v-1435zM663 1793l241 -302h-125l-203 190l-204 -190h-125l241 302l-1 1h177z" />
    <glyph glyph-name="hcircumflex" unicode="&#x125;" 
d="M218 -2h-175v1304l175 130v-559q109 149 304 149q433 -10 433 -442v-582h-175v582q8 315 -271 315q-269 -10 -291 -309v-588zM587 1781l241 -302h-125l-203 190l-204 -190h-125l241 302l-1 1h177z" />
    <glyph glyph-name="Hbar" unicode="&#x126;" horiz-adv-x="1285" 
d="M1156 1108v-1109h-175v647h-685v-647h-175v1109h-93v126h93v200h175v-200h685v200h175v-200h92v-126h-92zM296 1108v-320h685v320h-685z" />
    <glyph glyph-name="hbar" unicode="&#x127;" 
d="M218 1166v-293q109 149 304 149q433 -10 433 -442v-582h-175v582q8 315 -271 315q-269 -10 -291 -309v-588h-175v1168h-152v126h152v140h175v-140h201v-126h-201z" />
    <glyph glyph-name="Itilde" unicode="&#x128;" horiz-adv-x="319" 
d="M253 -1h-175v1305l175 130v-1435zM39 1626q-38 -10 -38 -23v-76h-114v76q0 62 43 105.5t125 40t159.5 -54.5t96.5 -41t19 23v76h114v-76q0 -61 -30 -105t-92.5 -44t-153.5 54.5t-129 44.5z" />
    <glyph glyph-name="itilde" unicode="&#x129;" horiz-adv-x="255" 
d="M48 897l175 130v-1028h-175v898zM9 1216q-38 -10 -38 -23v-76h-114v76q0 62 43 105.5t125 40t159.5 -54.5t96.5 -41t19 23v76h114v-76q0 -61 -30 -105t-92.5 -44t-153.5 54.5t-129 44.5z" />
    <glyph glyph-name="Imacron" unicode="&#x12a;" horiz-adv-x="319" 
d="M253 -1h-175v1305l175 130v-1435zM435 1716v-126h-539v126h539z" />
    <glyph glyph-name="imacron" unicode="&#x12b;" horiz-adv-x="255" 
d="M48 897l175 130v-1028h-175v898zM405 1306v-126h-539v126h539z" />
    <glyph glyph-name="Ibreve" unicode="&#x12c;" horiz-adv-x="319" 
d="M254 -1h-175v1305l175 130v-1435zM457 1742q-18 -80 -79 -141q-87 -89 -211 -89t-212 89q-61 61 -80 141h114q14 -33 42 -59q56 -54 136 -54q79 0 135 54q27 26 41 59h114z" />
    <glyph glyph-name="ibreve" unicode="&#x12d;" horiz-adv-x="255" 
d="M49 897l175 130v-1028h-175v898zM427 1332q-18 -80 -79 -141q-87 -89 -211 -89t-212 89q-61 61 -80 141h114q14 -33 42 -59q56 -54 136 -54q79 0 135 54q27 26 41 59h114z" />
    <glyph glyph-name="Iogonek" unicode="&#x12e;" horiz-adv-x="319" 
d="M253 -1h-175v1305l175 130v-1435zM103 -14q-233 -195 -135 -367q127 -152 371 -52v118q-155 -90 -248 -4q-74 115 154 305h-142z" />
    <glyph glyph-name="iogonek" unicode="&#x12f;" horiz-adv-x="255" 
d="M48 897l175 130v-1028h-175v898zM48 1432h175l-175 -191v191zM74 -16q-233 -195 -135 -367q127 -152 371 -52v118q-155 -90 -248 -4q-74 115 154 305h-142z" />
    <glyph glyph-name="Idotaccent" unicode="&#x130;" horiz-adv-x="319" 
d="M254 -1h-175v1305l175 130v-1435zM259.5 1740.5q38.5 -38.5 38.5 -93.5t-38.5 -93.5t-93.5 -38.5t-93.5 38.5t-38.5 93.5t38.5 93.5t93.5 38.5t93.5 -38.5z" />
    <glyph glyph-name="dotlessi" unicode="&#x131;" horiz-adv-x="255" 
d="M48 897l175 130v-1028h-175v898z" />
    <glyph glyph-name="IJ" unicode="&#x132;" horiz-adv-x="1055" 
d="M253 -1h-175v1435h175v-1435zM955 301q-15 -304 -308 -303q-138 0 -223.5 83.5t-82.5 258.5h156q14 -217 150 -217q141 1 133 208v1103h175v-1133z" />
    <glyph glyph-name="ij" unicode="&#x133;" horiz-adv-x="514" 
d="M48 1027h175v-1028h-175v1028zM48 1432h175v-191h-175v191zM307 1432h175v-191h-175v191zM140 -222h115q21 0 36 14.5t16 39.5v1195h175v-1168q0 -95 -66.5 -161.5t-160.5 -66.5h-115v147z" />
    <glyph glyph-name="Jcircumflex" unicode="&#x134;" horiz-adv-x="890" 
d="M852 361q-15 -364 -408 -363q-208 0 -298.5 103.5t-87.5 238.5h166q4 -217 220 -217q251 1 233 268v1043l175 -130v-943zM842 1793l241 -302h-125l-203 190l-204 -190h-125l241 302l-1 1h177z" />
    <glyph glyph-name="jcircumflex" unicode="&#x135;" horiz-adv-x="255" 
d="M-119 -222h115q21 0 36 14.5t16 39.5v1195h175v-1168q0 -95 -66.5 -161.5t-160.5 -66.5h-115v147zM220 1383l241 -302h-125l-203 190l-204 -190h-125l241 302l-1 1h177z" />
    <glyph glyph-name="Kcommaaccent" unicode="&#x136;" horiz-adv-x="1092" 
d="M253 475v-476h-175v1435h175v-683l585 683h215l-549 -682l550 -752h-115l-564 625zM563 -69h140q18 -227 -146 -365h-130q174 138 136 365z" />
    <glyph glyph-name="kcommaaccent" unicode="&#x137;" horiz-adv-x="907" 
d="M223 416v-417h-175v1433l175 -130v-688l425 407h215l-460 -456l470 -566h-85l-509 478zM458 -69h140q18 -227 -146 -365h-130q174 138 136 365z" />
    <glyph glyph-name="kgreenlandic" unicode="&#x138;" horiz-adv-x="907" 
d="M223 416v-417h-175v1023h175v-408l425 407h215l-460 -456l470 -566h-215l-379 478z" />
    <glyph glyph-name="Lacute" unicode="&#x139;" horiz-adv-x="1200" 
d="M273 134h878v-138h-1053v1438l175 -130v-1170zM690 1770h175l-235 -279h-125z" />
    <glyph glyph-name="lacute" unicode="&#x13a;" horiz-adv-x="255" 
d="M223 -1h-175v1303l175 130v-1433zM251 1782h175l-235 -279h-125z" />
    <glyph glyph-name="Lcommaaccent" unicode="&#x13b;" horiz-adv-x="1200" 
d="M273 134h878v-138h-1053v1438l175 -130v-1170zM622 -69h140q18 -227 -146 -365h-130q174 138 136 365z" />
    <glyph glyph-name="lcommaaccent" unicode="&#x13c;" horiz-adv-x="255" 
d="M223 -1h-175v1303l175 130v-1433zM133 -69h140q18 -227 -146 -365h-130q174 138 136 365z" />
    <glyph glyph-name="Lcaron" unicode="&#x13d;" horiz-adv-x="1200" 
d="M273 134h878v-138h-1053v1438l175 -130v-1170zM1011 1432h123q59 -172 -84 -344h-88q126 172 49 344z" />
    <glyph glyph-name="lcaron" unicode="&#x13e;" horiz-adv-x="538" 
d="M223 -1h-175v1303l175 130v-1433zM440 1432h123q59 -172 -84 -344h-88q126 172 49 344z" />
    <glyph glyph-name="Ldot" unicode="&#x13f;" horiz-adv-x="1200" 
d="M273 134h878v-138h-1053v1438h175v-1300zM973 672h-175v224h175v-224z" />
    <glyph glyph-name="ldot" unicode="&#x140;" horiz-adv-x="533" 
d="M223 -1h-175v1433h175v-1433zM481 598h-175v224h175v-224z" />
    <glyph glyph-name="Lslash" unicode="&#x141;" horiz-adv-x="1200" 
d="M273 702v-568h878v-138h-1053v650l-187 -60v126l187 60v662h175v-606l215 69v-126z" />
    <glyph glyph-name="lslash" unicode="&#x142;" horiz-adv-x="658" 
d="M417 707v-708h-175v651l-201 -64v126l201 64v656h175v-599l201 64v-126z" />
    <glyph glyph-name="Nacute" unicode="&#x143;" horiz-adv-x="1165" 
d="M253 1118v-1119l-175 130v1305h175l689 -1119v1119l175 -130v-1305h-175zM663 1770h175l-235 -279h-125z" />
    <glyph glyph-name="nacute" unicode="&#x144;" 
d="M228 -2h-175v1024l175 -119q69 119 294 119q226 0 339.5 -120t113.5 -282v-622h-175v622q0 109 -66 192t-215 83q-289 0 -291 -239v-658zM579 1360h175l-235 -279h-125z" />
    <glyph glyph-name="Ncommaaccent" unicode="&#x145;" horiz-adv-x="1165" 
d="M253 1118v-1119l-175 130v1305h175l689 -1119v1119l175 -130v-1305h-175zM595 -69h140q18 -227 -146 -365h-130q174 138 136 365z" />
    <glyph glyph-name="ncommaaccent" unicode="&#x146;" 
d="M228 -2h-175v1024l175 -119q69 119 294 119q226 0 339.5 -120t113.5 -282v-622h-175v622q0 109 -66 192t-215 83q-289 0 -291 -239v-658zM511 -69h140q18 -227 -146 -365h-130q174 138 136 365z" />
    <glyph glyph-name="Ncaron" unicode="&#x147;" horiz-adv-x="1165" 
d="M253 1118v-1119l-175 130v1305h175l689 -1119v1119l175 -130v-1305h-175zM510 1492l-241 302h125l203 -190l204 190h125l-241 -302l1 -1h-177z" />
    <glyph glyph-name="ncaron" unicode="&#x148;" 
d="M228 -2h-175v1024l175 -119q69 119 294 119q226 0 339.5 -120t113.5 -282v-622h-175v622q0 109 -66 192t-215 83q-289 0 -291 -239v-658zM427 1082l-241 302h125l203 -190l204 190h125l-241 -302l1 -1h-177z" />
    <glyph glyph-name="napostrophe" unicode="&#x149;" horiz-adv-x="1074" 
d="M72 1501h123q59 -172 -84 -344h-88q126 172 49 344zM293 -2h-175v1024l175 -119q69 119 294 119q226 0 339.5 -120t113.5 -282v-622h-175v622q0 109 -66 192t-215 83q-289 0 -291 -239v-658z" />
    <glyph glyph-name="Eng" unicode="&#x14a;" horiz-adv-x="1317" 
d="M693 129h182q237 1 239 401v190q-1 233 -126 401q-127 168 -307 168q-179 0 -305.5 -168.5t-126.5 -404.5v-717h-171v1435l175 -263q178 262 427 262q250 0 427 -210q175 -209 176 -503v-223q-15 -494 -408 -493h-182v125z" />
    <glyph glyph-name="eng" unicode="&#x14b;" 
d="M800 620q0 109 -66 192t-215 83q-289 -10 -291 -239v-658h-175v1024l175 -119q79 119 294 119q226 0 339.5 -120t113.5 -282v-783q0 -95 -66.5 -161.5t-160.5 -66.5h-115v147h115q21 0 36 14.5t16 39.5v810z" />
    <glyph glyph-name="Omacron" unicode="&#x14c;" horiz-adv-x="1317" 
d="M1107.5 1223q176.5 -210 176.5 -508t-176.5 -508t-426.5 -210q-249 0 -425.5 210t-176.5 508t176.5 508t425.5 210q250 0 426.5 -210zM681 1289q-179 0 -305.5 -168.5t-126.5 -404.5q0 -238 126.5 -406.5t305.5 -168.5q180 0 306.5 168.5t126.5 406.5q0 236 -126.5 404.5
t-306.5 168.5zM951 1716v-126h-539v126h539z" />
    <glyph glyph-name="omacron" unicode="&#x14d;" horiz-adv-x="1027" 
d="M853 872q142 -150 142 -362q0 -213 -142 -363t-344 -150q-201 0 -343.5 150t-142.5 363q0 212 142.5 362t343.5 150q202 0 344 -150zM509 895q-129 0 -219.5 -113t-90.5 -272q0 -160 90.5 -273t219.5 -113t220 113t91 273q0 159 -91 272t-220 113zM779 1306v-126h-539
v126h539z" />
    <glyph glyph-name="Obreve" unicode="&#x14e;" horiz-adv-x="1317" 
d="M1107.5 1223q176.5 -210 176.5 -508t-176.5 -508t-426.5 -210q-249 0 -425.5 210t-176.5 508t176.5 508t425.5 210q250 0 426.5 -210zM681 1289q-179 0 -305.5 -168.5t-126.5 -404.5q0 -238 126.5 -406.5t305.5 -168.5q180 0 306.5 168.5t126.5 406.5q0 236 -126.5 404.5
t-306.5 168.5zM973 1742q-18 -80 -79 -141q-87 -89 -211 -89t-212 89q-61 61 -80 141h114q14 -33 42 -59q56 -54 136 -54q79 0 135 54q27 26 41 59h114z" />
    <glyph glyph-name="obreve" unicode="&#x14f;" horiz-adv-x="1027" 
d="M853 872q142 -150 142 -362q0 -213 -142 -363t-344 -150q-201 0 -343.5 150t-142.5 363q0 212 142.5 362t343.5 150q202 0 344 -150zM509 895q-129 0 -219.5 -113t-90.5 -272q0 -160 90.5 -273t219.5 -113t220 113t91 273q0 159 -91 272t-220 113zM800 1332
q-18 -80 -79 -141q-87 -89 -211 -89t-212 89q-61 61 -80 141h114q14 -33 42 -59q56 -54 136 -54q79 0 135 54q27 26 41 59h114z" />
    <glyph glyph-name="Ohungarumlaut" unicode="&#x150;" horiz-adv-x="1317" 
d="M1107.5 1223q176.5 -210 176.5 -508t-176.5 -508t-426.5 -210q-249 0 -425.5 210t-176.5 508t176.5 508t425.5 210q250 0 426.5 -210zM681 1289q-179 0 -305.5 -168.5t-126.5 -404.5q0 -238 126.5 -406.5t305.5 -168.5q180 0 306.5 168.5t126.5 406.5q0 236 -126.5 404.5
t-306.5 168.5zM549 1790h175l-246 -299h-125zM836 1790h175l-246 -299h-125z" />
    <glyph glyph-name="ohungarumlaut" unicode="&#x151;" horiz-adv-x="1027" 
d="M853 872q142 -150 142 -362q0 -213 -142 -363t-344 -150q-201 0 -343.5 150t-142.5 363q0 212 142.5 362t343.5 150q202 0 344 -150zM509 895q-129 0 -219.5 -113t-90.5 -272q0 -160 90.5 -273t219.5 -113t220 113t91 273q0 159 -91 272t-220 113zM376 1380h175
l-246 -299h-125zM663 1380h175l-246 -299h-125z" />
    <glyph glyph-name="OE" unicode="&#x152;" horiz-adv-x="1679" 
d="M788 1419v10h863v-138h-688v-462h658v-138h-658v-557h688v-137l-863 -1v11q-52 -10 -107 -10q-249 0 -425.5 209.5t-176.5 506.5t176.5 506.5t425.5 209.5q55 0 107 -10zM788 1269q-51 16 -107 16q-179 0 -305.5 -167.5t-126.5 -402.5q0 -237 126.5 -404.5t305.5 -167.5
q56 0 107 16v1110z" />
    <glyph glyph-name="oe" unicode="&#x153;" horiz-adv-x="1822" 
d="M519 895q-129 0 -219.5 -113t-90.5 -272q0 -160 90.5 -273t219.5 -113t220 113t91 273q0 159 -91 272t-220 113zM1624 581q-16 114 -86 201q-91 113 -220 113t-219 -113q-70 -87 -86 -201h611zM919 216q-25 -36 -56 -69q-142 -150 -344 -150q-201 0 -343.5 150
t-142.5 363q0 212 142.5 362t343.5 150q202 0 344 -150q31 -33 56 -69q24 36 56 69q142 150 343 150q202 0 344 -150t133 -416h-784q13 -126 88 -219q90 -113 241 -114q96 0 174 44q89 49 106 153h156q-7 -135 -149 -241q-119 -81 -287 -81q-223 -1 -365 149q-32 33 -56 69z
" />
    <glyph glyph-name="Racute" unicode="&#x154;" horiz-adv-x="1137" 
d="M359 777h336q214 -12 214 261t-214 265h-452v-1304h-175v1434h657q157 0 253 -101.5t96 -295.5t-74 -267.5t-170 -97.5q137 -42 162 -252l50 -251q25 -89 61 -169h-45q-155 40 -194 241l-41 184q-40 214 -237 225h-227v128zM651 1770h175l-235 -279h-125z" />
    <glyph glyph-name="racute" unicode="&#x155;" horiz-adv-x="573" 
d="M198 -2h-175v1024l155 -109q89 109 245 112q70 0 119 -30v-133q-67 30 -134 30q-198 -1 -210 -226v-668zM348 1360h175l-235 -279h-125z" />
    <glyph glyph-name="Rcommaaccent" unicode="&#x156;" horiz-adv-x="1137" 
d="M359 777h336q214 -12 214 261t-214 265h-452v-1304h-175v1434h657q157 0 253 -101.5t96 -295.5t-74 -267.5t-170 -97.5q137 -42 162 -252l50 -251q25 -89 61 -169h-45q-155 40 -194 241l-41 184q-40 214 -237 225h-227v128zM583 -69h140q18 -227 -146 -365h-130
q174 138 136 365z" />
    <glyph glyph-name="rcommaaccent" unicode="&#x157;" horiz-adv-x="573" 
d="M198 -2h-175v1024l155 -109q89 109 245 112q70 0 119 -30v-133q-67 30 -134 30q-198 -1 -210 -226v-668zM280 -69h140q18 -227 -146 -365h-130q174 138 136 365z" />
    <glyph glyph-name="Rcaron" unicode="&#x158;" horiz-adv-x="1137" 
d="M359 777h336q214 -12 214 261t-214 265h-452v-1304h-175v1434h657q157 0 253 -101.5t96 -295.5t-74 -267.5t-170 -97.5q137 -42 162 -252l50 -251q25 -89 61 -169h-45q-155 40 -194 241l-41 184q-40 214 -237 225h-227v128zM498 1492l-241 302h125l203 -190l204 190h125
l-241 -302l1 -1h-177z" />
    <glyph glyph-name="rcaron" unicode="&#x159;" horiz-adv-x="573" 
d="M198 -2h-175v1024l155 -109q89 109 245 112q70 0 119 -30v-133q-67 30 -134 30q-198 -1 -210 -226v-668zM195 1082l-241 302h125l203 -190l204 190h125l-241 -302l1 -1h-177z" />
    <glyph glyph-name="Sacute" unicode="&#x15a;" horiz-adv-x="1116" 
d="M826 1288h-288q-169 0 -232.5 -56.5t-63.5 -144.5q0 -98 83 -159q75 -55 244 -107t334 -142q147 -106 147 -295q0 -159 -137.5 -272t-354.5 -113q-258 0 -386 124.5t-127 310.5h197q-2 -145 77.5 -218t238.5 -73q138 0 221.5 61.5t83.5 179.5t-93 189q-75 55 -239 102
t-339 150q-147 93 -147 262q0 159 122.5 252t370.5 93h418zM612 1770h175l-235 -279h-125z" />
    <glyph glyph-name="sacute" unicode="&#x15b;" horiz-adv-x="887" 
d="M690 899h-242q-206 0 -231 -136q0 -68 44 -104.5t204.5 -72t274.5 -113t114 -211.5t-99 -200t-297 -66q-178 0 -297 81q-112 76 -119 241h175q7 -114 67 -153q68 -44 174 -44q126 0 173.5 34t47.5 107q0 83 -64 124.5t-224.5 77t-249.5 103t-89 181.5t104 195t292 81h351
zM513 1360h175l-235 -279h-125z" />
    <glyph glyph-name="Scircumflex" unicode="&#x15c;" horiz-adv-x="1116" 
d="M826 1288h-288q-169 0 -232.5 -56.5t-63.5 -144.5q0 -98 83 -159q75 -55 244 -107t334 -142q147 -106 147 -295q0 -159 -137.5 -272t-354.5 -113q-258 0 -386 124.5t-127 310.5h197q-2 -145 77.5 -218t238.5 -73q138 0 221.5 61.5t83.5 179.5t-93 189q-75 55 -239 102
t-339 150q-147 93 -147 262q0 159 122.5 252t370.5 93h418zM635 1793l241 -302h-125l-203 190l-204 -190h-125l241 302l-1 1h177z" />
    <glyph glyph-name="scircumflex" unicode="&#x15d;" horiz-adv-x="887" 
d="M690 899h-242q-206 0 -231 -136q0 -68 44 -104.5t204.5 -72t274.5 -113t114 -211.5t-99 -200t-297 -66q-178 0 -297 81q-112 76 -119 241h175q7 -114 67 -153q68 -44 174 -44q126 0 173.5 34t47.5 107q0 83 -64 124.5t-224.5 77t-249.5 103t-89 181.5t104 195t292 81h351
zM536 1383l241 -302h-125l-203 190l-204 -190h-125l241 302l-1 1h177z" />
    <glyph glyph-name="Scedilla" unicode="&#x15e;" horiz-adv-x="1116" 
d="M826 1288h-288q-169 0 -232.5 -56.5t-63.5 -144.5q0 -98 83 -159q75 -55 244 -107t334 -142q147 -106 147 -295q0 -159 -137.5 -272t-354.5 -113q-258 0 -386 124.5t-127 310.5h197q-2 -145 77.5 -218t238.5 -73q138 0 221.5 61.5t83.5 179.5t-93 189q-75 55 -239 102
t-339 150q-147 93 -147 262q0 159 122.5 252t370.5 93h418zM434 -19l-42 -206h134q73 0 73 -64t-94 -64h-114v-98h121q70 0 131 34t61 124.5t-52 127t-135 36.5l24 111z" />
    <glyph glyph-name="scedilla" unicode="&#x15f;" horiz-adv-x="887" 
d="M690 899h-242q-206 0 -231 -136q0 -68 44 -104.5t204.5 -72t274.5 -113t114 -211.5t-99 -200t-297 -66q-178 0 -297 81q-112 76 -119 241h175q7 -114 67 -153q68 -44 174 -44q126 0 173.5 34t47.5 107q0 83 -64 124.5t-224.5 77t-249.5 103t-89 181.5t104 195t292 81h351
zM335 -19l-42 -206h134q73 0 73 -64t-94 -64h-114v-98h121q70 0 131 34t61 124.5t-52 127t-135 36.5l24 111z" />
    <glyph glyph-name="Scaron" unicode="&#x160;" horiz-adv-x="1116" 
d="M826 1288h-288q-169 0 -232.5 -56.5t-63.5 -144.5q0 -98 83 -159q75 -55 244 -107t334 -142q147 -106 147 -295q0 -159 -137.5 -272t-354.5 -113q-258 0 -386 124.5t-127 310.5h197q-2 -145 77.5 -218t238.5 -73q138 0 221.5 61.5t83.5 179.5t-93 189q-75 55 -239 102
t-339 150q-147 93 -147 262q0 159 122.5 252t370.5 93h418zM460 1492l-241 302h125l203 -190l204 190h125l-241 -302l1 -1h-177z" />
    <glyph glyph-name="scaron" unicode="&#x161;" horiz-adv-x="887" 
d="M690 899h-242q-206 0 -231 -136q0 -68 44 -104.5t204.5 -72t274.5 -113t114 -211.5t-99 -200t-297 -66q-178 0 -297 81q-112 76 -119 241h175q7 -114 67 -153q68 -44 174 -44q126 0 173.5 34t47.5 107q0 83 -64 124.5t-224.5 77t-249.5 103t-89 181.5t104 195t292 81h351
zM361 1082l-241 302h125l203 -190l204 190h125l-241 -302l1 -1h-177z" />
    <glyph glyph-name="Tcommaaccent" unicode="&#x162;" horiz-adv-x="1071" 
d="M621 1278v-1149l-175 -130v1279h-290l-130 156h885l130 -156h-420zM420 -19l-42 -206h134q73 0 73 -64t-94 -64h-114v-98h121q70 0 131 34t61 124.5t-52 127t-135 36.5l24 111z" />
    <glyph glyph-name="tcommaaccent" unicode="&#x163;" horiz-adv-x="556" 
d="M43 904l303 369v-243h162l-162 -126v-706q1 -25 16 -39.5t36 -14.5h105v-147h-105q-94 0 -160.5 66.5t-66.5 161.5v679h-128zM382 -19l-42 -206h134q73 0 73 -64t-94 -64h-114v-98h121q70 0 131 34t61 124.5t-52 127t-135 36.5l24 111z" />
    <glyph glyph-name="Tcaron" unicode="&#x164;" horiz-adv-x="1071" 
d="M621 1278v-1149l-175 -130v1279h-290l-130 156h885l130 -156h-420zM446 1492l-241 302h125l203 -190l204 190h125l-241 -302l1 -1h-177z" />
    <glyph glyph-name="tcaron" unicode="&#x165;" horiz-adv-x="574" 
d="M43 904l303 369v-243h162l-162 -126v-706q1 -25 16 -39.5t36 -14.5h105v-147h-105q-94 0 -160.5 66.5t-66.5 161.5v679h-128zM481 1432h123q59 -172 -84 -344h-88q126 172 49 344z" />
    <glyph glyph-name="Tbar" unicode="&#x166;" horiz-adv-x="1071" 
d="M446 780v498h-420v156h1015v-156h-420v-498h328v-126h-328v-655h-175v655h-327v126h327z" />
    <glyph glyph-name="tbar" unicode="&#x167;" horiz-adv-x="556" 
d="M171 570v334h-128v126h128v243h175v-243h162v-126h-162v-334h165v-126h-165v-246q1 -25 16 -39.5t36 -14.5h105v-147h-105q-94 0 -160.5 66.5t-66.5 161.5v219h-150v126h150z" />
    <glyph glyph-name="Utilde" unicode="&#x168;" horiz-adv-x="1148" 
d="M924 1433h164v-959q6 -198 -125.5 -337.5t-381.5 -139.5q-249 0 -375.5 139.5t-126.5 337.5v959l170 -130v-802q0 -147 76.5 -250.5t255.5 -103.5q180 0 261.5 103.5t81.5 250.5v932zM457 1626q-38 -10 -38 -23v-76h-114v76q0 62 43 105.5t125 40t159.5 -54.5t96.5 -41
t19 23v76h114v-76q0 -61 -30 -105t-92.5 -44t-153.5 54.5t-129 44.5z" />
    <glyph glyph-name="utilde" unicode="&#x169;" 
d="M780 1022h175v-1024l-165 129q-99 -129 -304 -129q-226 0 -339.5 120t-113.5 282v622h175v-622q0 -109 66 -192t215 -83q289 10 291 239v658zM368 1216q-38 -10 -38 -23v-76h-114v76q0 62 43 105.5t125 40t159.5 -54.5t96.5 -41t19 23v76h114v-76q0 -61 -30 -105
t-92.5 -44t-153.5 54.5t-129 44.5z" />
    <glyph glyph-name="Umacron" unicode="&#x16a;" horiz-adv-x="1148" 
d="M924 1433h164v-959q6 -198 -125.5 -337.5t-381.5 -139.5q-249 0 -375.5 139.5t-126.5 337.5v959l170 -130v-802q0 -147 76.5 -250.5t255.5 -103.5q180 0 261.5 103.5t81.5 250.5v932zM853 1716v-126h-539v126h539z" />
    <glyph glyph-name="umacron" unicode="&#x16b;" 
d="M780 1022h175v-1024l-165 129q-99 -129 -304 -129q-226 0 -339.5 120t-113.5 282v622h175v-622q0 -109 66 -192t215 -83q289 10 291 239v658zM764 1306v-126h-539v126h539z" />
    <glyph glyph-name="Ubreve" unicode="&#x16c;" horiz-adv-x="1148" 
d="M924 1433h164v-959q6 -198 -125.5 -337.5t-381.5 -139.5q-249 0 -375.5 139.5t-126.5 337.5v959l170 -130v-802q0 -147 76.5 -250.5t255.5 -103.5q180 0 261.5 103.5t81.5 250.5v932zM875 1742q-18 -80 -79 -141q-87 -89 -211 -89t-212 89q-61 61 -80 141h114
q14 -33 42 -59q56 -54 136 -54q79 0 135 54q27 26 41 59h114z" />
    <glyph glyph-name="ubreve" unicode="&#x16d;" 
d="M780 1022h175v-1024l-165 129q-99 -129 -304 -129q-226 0 -339.5 120t-113.5 282v622h175v-622q0 -109 66 -192t215 -83q289 10 291 239v658zM785 1332q-18 -80 -79 -141q-87 -89 -211 -89t-212 89q-61 61 -80 141h114q14 -33 42 -59q56 -54 136 -54q79 0 135 54
q27 26 41 59h114z" />
    <glyph glyph-name="Uring" unicode="&#x16e;" horiz-adv-x="1148" 
d="M924 1433h164v-959q6 -198 -125.5 -337.5t-381.5 -139.5q-249 0 -375.5 139.5t-126.5 337.5v959l170 -130v-802q0 -147 76.5 -250.5t255.5 -103.5q180 0 261.5 103.5t81.5 250.5v932zM584 1800q78 0 133.5 -52t55.5 -125t-55.5 -125t-133.5 -52q-79 0 -134 52t-55 125
t55 125t134 52zM470 1623q0 -47 33.5 -80t80.5 -33q48 0 81 33t33 80t-33 80t-81 33q-47 0 -80.5 -33t-33.5 -80z" />
    <glyph glyph-name="uring" unicode="&#x16f;" 
d="M780 1022h175v-1024l-165 129q-99 -129 -304 -129q-226 0 -339.5 120t-113.5 282v622h175v-622q0 -109 66 -192t215 -83q289 10 291 239v658zM494 1390q78 0 133.5 -52t55.5 -125t-55.5 -125t-133.5 -52q-79 0 -134 52t-55 125t55 125t134 52zM380 1213q0 -47 33.5 -80
t80.5 -33q48 0 81 33t33 80t-33 80t-81 33q-47 0 -80.5 -33t-33.5 -80z" />
    <glyph glyph-name="Uhungarumlaut" unicode="&#x170;" horiz-adv-x="1148" 
d="M924 1433h164v-959q6 -198 -125.5 -337.5t-381.5 -139.5q-249 0 -375.5 139.5t-126.5 337.5v959l170 -130v-802q0 -147 76.5 -250.5t255.5 -103.5q180 0 261.5 103.5t81.5 250.5v932zM451 1790h175l-246 -299h-125zM738 1790h175l-246 -299h-125z" />
    <glyph glyph-name="uhungarumlaut" unicode="&#x171;" 
d="M780 1022h175v-1024l-165 129q-99 -129 -304 -129q-226 0 -339.5 120t-113.5 282v622h175v-622q0 -109 66 -192t215 -83q289 10 291 239v658zM361 1380h175l-246 -299h-125zM648 1380h175l-246 -299h-125z" />
    <glyph glyph-name="Uogonek" unicode="&#x172;" horiz-adv-x="1148" 
d="M608 -3h-27q-249 0 -375.5 139.5t-126.5 337.5v959l170 -130v-802q0 -147 76.5 -250.5t255.5 -103.5q180 0 261.5 103.5t81.5 250.5v932h164v-959q6 -198 -125 -337q-74 -79 -185 -113q-202 -177 -132 -286q93 -86 248 4v-118q-244 -100 -371 52q-86 152 85 321z" />
    <glyph glyph-name="uogonek" unicode="&#x173;" 
d="M780 1022h175v-1024l-165 129q-99 -129 -304 -129q-226 0 -339.5 120t-113.5 282v622h175v-622q0 -109 66 -192t215 -83q289 10 291 239v658zM719 5q-233 -195 -135 -367q127 -152 371 -52v118q-155 -90 -248 -4q-74 115 154 305h-142z" />
    <glyph glyph-name="Wcircumflex" unicode="&#x174;" horiz-adv-x="1833" 
d="M936 1125l-283 -1126h-215l-360 1435h175l293 -1224l292 1224h195l293 -1224l402 1224h65l-360 -1435h-215zM1023 1793l241 -302h-125l-203 190l-204 -190h-125l241 302l-1 1h177z" />
    <glyph glyph-name="wcircumflex" unicode="&#x175;" horiz-adv-x="1453" 
d="M322 -1l-299 1028h175l217 -746l217 746h186l217 -746l317 746h75l-299 -1028h-186l-217 746l-217 -746h-186zM813 1383l241 -302h-125l-203 190l-204 -190h-125l241 302l-1 1h177z" />
    <glyph glyph-name="Ycircumflex" unicode="&#x176;" horiz-adv-x="1161" 
d="M508 691l-15 26l-415 717h195l318 -549l427 549h85l-415 -717l-5 -9v-709h-175v692zM678 1793l241 -302h-125l-203 190l-204 -190h-125l241 302l-1 1h177z" />
    <glyph glyph-name="ycircumflex" unicode="&#x177;" horiz-adv-x="1067" 
d="M460 -32l-411 1059h75l423 -828l323 828h175l-485 -1257q-53 -128 -123 -168t-152 -45t-227 -1v157q155 -4 231 7t116 83zM635 1383l241 -302h-125l-203 190l-204 -190h-125l241 302l-1 1h177z" />
    <glyph glyph-name="Ydieresis" unicode="&#x178;" horiz-adv-x="1161" 
d="M508 691l-15 26l-415 717h195l318 -549l427 549h85l-415 -717l-5 -9v-709h-175v692zM528 1549h-175v224h175v-224zM828 1549h-175v224h175v-224z" />
    <glyph glyph-name="Zacute" unicode="&#x179;" horiz-adv-x="1085" 
d="M1033 1311l-777 -1176h761l-120 -136h-840v124l788 1175h-791l120 136h859v-123zM609 1770h175l-235 -279h-125z" />
    <glyph glyph-name="zacute" unicode="&#x17a;" horiz-adv-x="934" 
d="M604 881h-457l-100 146h830v-30l-534 -852h434l100 -146h-841v26zM522 1360h175l-235 -279h-125z" />
    <glyph glyph-name="Zdotaccent" unicode="&#x17b;" horiz-adv-x="1085" 
d="M1033 1311l-777 -1176h761l-120 -136h-840v124l788 1175h-791l120 136h859v-123zM637.5 1740.5q38.5 -38.5 38.5 -93.5t-38.5 -93.5t-93.5 -38.5t-93.5 38.5t-38.5 93.5t38.5 93.5t93.5 38.5t93.5 -38.5z" />
    <glyph glyph-name="zdotaccent" unicode="&#x17c;" horiz-adv-x="934" 
d="M604 881h-457l-100 146h830v-30l-534 -852h434l100 -146h-841v26zM550.5 1330.5q38.5 -38.5 38.5 -93.5t-38.5 -93.5t-93.5 -38.5t-93.5 38.5t-38.5 93.5t38.5 93.5t93.5 38.5t93.5 -38.5z" />
    <glyph glyph-name="Zcaron" unicode="&#x17d;" horiz-adv-x="1085" 
d="M1033 1311l-777 -1176h761l-120 -136h-840v124l788 1175h-791l120 136h859v-123zM456 1492l-241 302h125l203 -190l204 190h125l-241 -302l1 -1h-177z" />
    <glyph glyph-name="zcaron" unicode="&#x17e;" horiz-adv-x="934" 
d="M604 881h-457l-100 146h830v-30l-534 -852h434l100 -146h-841v26zM369 1082l-241 302h125l203 -190l204 190h125l-241 -302l1 -1h-177z" />
    <glyph glyph-name="longs" unicode="&#x17f;" horiz-adv-x="556" 
d="M171 1026v179q0 95 66.5 161.5t160.5 66.5h125v-147h-125q-21 0 -36 -14.5t-16 -39.5v-1235h-175v903h-128v126h128z" />
    <glyph glyph-name="florin" unicode="&#x192;" horiz-adv-x="735" 
d="M222 1026h110l25 179q13 95 89 161.5t170 66.5h89v-147h-110q-21 0 -38 -14.5t-21 -39.5l-29 -206h131v-126h-149l-121 -866q-13 -95 -89 -161.5t-170 -66.5h-78v147h99q21 0 38 14.5t21 39.5l125 893h-92v126z" />
    <glyph glyph-name="Aringacute" unicode="&#x1fa;" horiz-adv-x="1256" 
d="M856 566l-210 657l-211 -657h421zM532 1473q0 -47 33.5 -80t80.5 -33q48 0 81 33t33 80t-33 80t-81 33q-47 0 -80.5 -33t-33.5 -80zM624 1649l112 150h175l-166 -175q18 -11 35 -26q55 -52 55 -125q0 -72 -55 -124l433 -1350h-175l-141 441h-502l-142 -441h-175l433 1350
q-54 52 -54 124q0 73 55 125q47 45 112 51z" />
    <glyph glyph-name="aringacute" unicode="&#x1fb;" horiz-adv-x="887" 
d="M700 86q-101 -90 -271 -90q-178 0 -292 81t-114 235t119 235q109 74 229.5 94.5t219.5 32t99 74.5t-67.5 107t-163.5 44t-164 -44q-59 -39 -66 -133h-166q-3 145 109 221q119 81 287 81t287 -81t119 -195v-749zM690 559q-58 -18 -193 -30q-141 -11 -231 -60
q-68 -54 -68 -157t67.5 -147t163.5 -44t184 44q70 39 77 63v331zM444 1390q78 0 133.5 -52t55.5 -125t-55.5 -125t-133.5 -52q-79 0 -134 52t-55 125t55 125t134 52zM330 1213q0 -47 33.5 -80t80.5 -33q48 0 81 33t33 80t-33 80t-81 33q-47 0 -80.5 -33t-33.5 -80zM593 1703
h175l-235 -279h-125z" />
    <glyph glyph-name="AEacute" unicode="&#x1fc;" horiz-adv-x="1449" 
d="M1390 1429v-138h-578v-462h548v-138h-548v-557h578v-137l-753 -1v444h-242l-142 -441h-175l459 1430h853zM637 566v629l-202 -629h202zM799 1770h175l-235 -279h-125z" />
    <glyph glyph-name="aeacute" unicode="&#x1fd;" horiz-adv-x="1697" 
d="M690 579q-58 -38 -193 -50q-141 -11 -231 -60q-68 -54 -68 -157t67.5 -147t163.5 -44t184 44q70 39 77 63v351zM1490 581q-16 114 -86 201q-91 113 -220 113t-219 -113q-70 -87 -86 -201h611zM837 151q-212 -155 -408 -155q-178 0 -292 81t-114 235t119 235
q109 74 229.5 94.5t219.5 32t99 74.5t-67.5 107t-163.5 44t-164 -44q-59 -39 -66 -133h-166q-3 145 109 221q119 81 287 81t287 -81q55 -37 84 -82q5 6 11 11q142 150 343 150q202 0 344 -150t133 -416h-784q13 -126 88 -219q90 -113 241 -114q96 0 174 44q89 49 106 153
h156q-7 -135 -149 -241q-119 -81 -287 -81q-223 -1 -365 149zM907 1360h175l-235 -279h-125z" />
    <glyph glyph-name="Oslashacute" unicode="&#x1fe;" horiz-adv-x="1317" 
d="M347 350l569 843q-103 90 -235 90q-179 0 -305.5 -167t-126.5 -402q0 -209 98 -364zM358 107l-73 -108h-175l143 211q-174 209 -174 503q0 297 176.5 506.5t425.5 209.5q180 0 321 -108l77 113h175l-146 -216q176 -209 176 -505q0 -297 -176.5 -506.5t-426.5 -209.5
q-181 0 -323 110zM1014 1078l-570 -843q104 -92 237 -92q180 0 306.5 167t126.5 404q0 209 -100 364zM747 1770h175l-235 -279h-125z" />
    <glyph glyph-name="oslashacute" unicode="&#x1ff;" horiz-adv-x="1056" 
d="M381 173q65 -43 144 -43q129 0 220 113t91 273q0 134 -64 235zM279 280l390 578q-65 43 -144 43q-129 0 -219.5 -113t-90.5 -272q0 -134 64 -236zM955 1023l-93 -138q4 -3 7 -7q142 -150 142 -362q0 -213 -142 -363t-344 -150q-121 0 -222 55l-39 -58h-175l99 146
q-3 4 -6 7q-143 150 -143 363q0 212 142.5 362t343.5 150q122 0 222 -55l34 50h174zM590 1360h175l-235 -279h-125z" />
    <glyph glyph-name="uni02BB" unicode="&#x2bb;" horiz-adv-x="220" 
d="M145 1157h-122q-60 172 84 344h87q-126 -172 -49 -344z" />
    <glyph glyph-name="afii57929" unicode="&#x2bc;" horiz-adv-x="220" 
d="M72 1501h123q59 -172 -84 -344h-88q126 172 49 344z" />
    <glyph glyph-name="afii64937" unicode="&#x2bd;" horiz-adv-x="220" 
d="M205 1501h-122q-60 -172 84 -344h87q-126 172 -49 344z" />
    <glyph glyph-name="circumflex" unicode="&#x2c6;" horiz-adv-x="761" 
d="M470 1383l241 -302h-125l-203 190l-204 -190h-125l241 302l-1 1h177z" />
    <glyph glyph-name="caron" unicode="&#x2c7;" horiz-adv-x="761" 
d="M295 1082l-241 302h125l203 -190l204 190h125l-241 -302l1 -1h-177z" />
    <glyph glyph-name="uni02C9" unicode="&#x2c9;" horiz-adv-x="666" 
d="M610 1306v-126h-539v126h539z" />
    <glyph glyph-name="breve" unicode="&#x2d8;" horiz-adv-x="660" 
d="M626 1332q-18 -80 -79 -141q-87 -89 -211 -89t-212 89q-61 61 -80 141h114q14 -33 42 -59q56 -54 136 -54q79 0 135 54q27 26 41 59h114z" />
    <glyph glyph-name="dotaccent" unicode="&#x2d9;" horiz-adv-x="469" 
d="M348.5 1330.5q38.5 -38.5 38.5 -93.5t-38.5 -93.5t-93.5 -38.5t-93.5 38.5t-38.5 93.5t38.5 93.5t93.5 38.5t93.5 -38.5z" />
    <glyph glyph-name="ring" unicode="&#x2da;" horiz-adv-x="516" 
d="M255 1390q78 0 133.5 -52t55.5 -125t-55.5 -125t-133.5 -52q-79 0 -134 52t-55 125t55 125t134 52zM141 1213q0 -47 33.5 -80t80.5 -33q48 0 81 33t33 80t-33 80t-81 33q-47 0 -80.5 -33t-33.5 -80z" />
    <glyph glyph-name="ogonek" unicode="&#x2db;" horiz-adv-x="465" 
d="M149 5q-233 -195 -135 -367q127 -152 371 -52v118q-155 -90 -248 -4q-74 115 154 305h-142z" />
    <glyph glyph-name="tilde" unicode="&#x2dc;" horiz-adv-x="697" 
d="M229 1216q-38 -10 -38 -23v-76h-114v76q0 62 43 105.5t125 40t159.5 -54.5t96.5 -41t19 23v76h114v-76q0 -61 -30 -105t-92.5 -44t-153.5 54.5t-129 44.5z" />
    <glyph glyph-name="hungarumlaut" unicode="&#x2dd;" horiz-adv-x="809" 
d="M297 1380h175l-246 -299h-125zM584 1380h175l-246 -299h-125z" />
    <glyph glyph-name="uni0312" unicode="&#x312;" horiz-adv-x="0" 
d="M-380 1157h-122q-60 172 84 344h87q-126 -172 -49 -344z" />
    <glyph glyph-name="uni0313" unicode="&#x313;" horiz-adv-x="0" 
d="M-513 1501h123q59 -172 -84 -344h-88q126 172 49 344z" />
    <glyph glyph-name="uni0314" unicode="&#x314;" horiz-adv-x="0" 
d="M-380 1501h-122q-60 -172 84 -344h87q-126 172 -49 344z" />
    <glyph glyph-name="uni0315" unicode="&#x315;" horiz-adv-x="195" 
d="M97 1432h123q59 -172 -84 -344h-88q126 172 49 344z" />
    <glyph glyph-name="uni031B" unicode="&#x31b;" horiz-adv-x="0" 
d="M-142 1270h175q85 -245 -120 -491h-125q180 246 70 491z" />
    <glyph glyph-name="uni0326" unicode="&#x326;" horiz-adv-x="0" 
d="M-436 -69h140q18 -227 -146 -365h-130q174 138 136 365z" />
    <glyph glyph-name="Wgrave" unicode="&#x1e80;" horiz-adv-x="1833" 
d="M936 1125l-283 -1126h-215l-360 1435h175l293 -1224l292 1224h195l293 -1224l402 1224h65l-360 -1435h-215zM1056 1491h-125l-235 279h175z" />
    <glyph glyph-name="wgrave" unicode="&#x1e81;" horiz-adv-x="1453" 
d="M322 -1l-299 1028h175l217 -746l217 746h186l217 -746l317 746h75l-299 -1028h-186l-217 746l-217 -746h-186zM845 1081h-125l-235 279h175z" />
    <glyph glyph-name="Wacute" unicode="&#x1e82;" horiz-adv-x="1833" 
d="M936 1125l-283 -1126h-215l-360 1435h175l293 -1224l292 1224h195l293 -1224l402 1224h65l-360 -1435h-215zM1001 1770h175l-235 -279h-125z" />
    <glyph glyph-name="wacute" unicode="&#x1e83;" horiz-adv-x="1453" 
d="M322 -1l-299 1028h175l217 -746l217 746h186l217 -746l317 746h75l-299 -1028h-186l-217 746l-217 -746h-186zM790 1360h175l-235 -279h-125z" />
    <glyph glyph-name="Wdieresis" unicode="&#x1e84;" horiz-adv-x="1833" 
d="M936 1125l-283 -1126h-215l-360 1435h175l293 -1224l292 1224h195l293 -1224l402 1224h65l-360 -1435h-215zM873 1549h-175v224h175v-224zM1173 1549h-175v224h175v-224z" />
    <glyph glyph-name="wdieresis" unicode="&#x1e85;" horiz-adv-x="1453" 
d="M322 -1l-299 1028h175l217 -746l217 746h186l217 -746l317 746h75l-299 -1028h-186l-217 746l-217 -746h-186zM663 1139h-175v224h175v-224zM963 1139h-175v224h175v-224z" />
    <glyph glyph-name="Ygrave" unicode="&#x1ef2;" horiz-adv-x="1161" 
d="M508 691l-15 26l-415 717h195l318 -549l427 549h85l-415 -717l-5 -9v-709h-175v692zM711 1491h-125l-235 279h175z" />
    <glyph glyph-name="ygrave" unicode="&#x1ef3;" horiz-adv-x="1067" 
d="M460 -32l-411 1059h75l423 -828l323 828h175l-485 -1257q-53 -128 -123 -168t-152 -45t-227 -1v157q155 -4 231 7t116 83zM667 1081h-125l-235 279h175z" />
    <glyph glyph-name="endash" unicode="&#x2013;" horiz-adv-x="1104" 
d="M54 419v120h996v-120h-996z" />
    <glyph glyph-name="emdash" unicode="&#x2014;" horiz-adv-x="2044" 
d="M-2 419v120h2048v-120h-2048z" />
    <glyph glyph-name="quoteleft" unicode="&#x2018;" horiz-adv-x="319" 
d="M223 943h-175q-85 245 120 491h125q-180 -246 -70 -491z" />
    <glyph glyph-name="quoteright" unicode="&#x2019;" horiz-adv-x="319" 
d="M93 1434h175q85 -245 -120 -491h-125q180 246 70 491z" />
    <glyph glyph-name="quotesinglbase" unicode="&#x201a;" horiz-adv-x="319" 
d="M93 284h175q85 -245 -120 -491h-125q180 246 70 491z" />
    <glyph glyph-name="quotedblleft" unicode="&#x201c;" horiz-adv-x="589" 
d="M491 943h-175q-85 245 120 491h125q-180 -246 -70 -491zM233 943h-175q-85 245 120 491h125q-180 -246 -70 -491z" />
    <glyph glyph-name="quotedblright" unicode="&#x201d;" horiz-adv-x="589" 
d="M93 1434h175q85 -245 -120 -491h-125q180 246 70 491zM351 1434h175q85 -245 -120 -491h-125q180 246 70 491z" />
    <glyph glyph-name="quotedblbase" unicode="&#x201e;" horiz-adv-x="589" 
d="M93 246h175q85 -245 -120 -491h-125q180 246 70 491zM351 246h175q85 -245 -120 -491h-125q180 246 70 491z" />
    <glyph glyph-name="dagger" unicode="&#x2020;" horiz-adv-x="556" 
d="M33 904v126h158v293h175v-293h162v-126h-162l-2 -1179h-173v1179h-158z" />
    <glyph glyph-name="daggerdbl" unicode="&#x2021;" horiz-adv-x="556" 
d="M191 227v677h-158v126h158v293h175v-293h162v-126h-162l-1 -677h163v-126h-163l-1 -376h-173v376h-158v126h158z" />
    <glyph glyph-name="bullet" unicode="&#x2022;" horiz-adv-x="1020" 
d="M214 718q0 123 87 209t210 86q122 0 208.5 -86.5t86.5 -208.5t-87.5 -209.5t-209.5 -87.5q-123 0 -209 87t-86 210z" />
    <glyph glyph-name="ellipsis" unicode="&#x2026;" horiz-adv-x="2044" 
d="M253 -1h-175v224h175v-224zM936 -1h-175v224h175v-224zM1619 -1h-175v224h175v-224z" />
    <glyph glyph-name="guilsinglleft" unicode="&#x2039;" horiz-adv-x="634" 
d="M549 1081v-175l-278 -323l278 -323v-175l-478 491z" />
    <glyph glyph-name="guilsinglright" unicode="&#x203a;" horiz-adv-x="634" 
d="M549 576l-478 -491v175l278 323l-278 323v175z" />
    <glyph glyph-name="fraction" unicode="&#x2044;" horiz-adv-x="338" 
d="M-344 -29l940 1461h84l-938 -1461h-86z" />
    <glyph glyph-name="fraction" unicode="&#x2215;" horiz-adv-x="338" 
d="M-344 -29l940 1461h84l-938 -1461h-86z" />
    <glyph glyph-name="Euro" unicode="&#x20ac;" horiz-adv-x="1416" 
d="M399 552q30 -131 109 -236q126 -167 335 -167q160 0 240 86t105 225h171l-2 -32q-21 -195 -157.5 -310t-356.5 -115q-279 0 -455 210q-124 147 -160 339h-175v126h161q-1 19 -1 38q0 45 4 88h-164v126h186q41 162 149 290q176 209 455 209q240 0 376.5 -120t139.5 -257
v-30h-171q-15 119 -100 190t-245 71q-209 0 -335 -167q-64 -84 -95 -186h470v-126h-496q-5 -43 -5 -88q0 -19 1 -38h500v-126h-484z" />
    <glyph glyph-name="trademark" unicode="&#x2122;" horiz-adv-x="865" 
d="M253 1360v-327h-95v327h-112v74h319v-74h-112zM461 1261v-228h-75v401h75l138 -303l138 303h75v-401h-75v228l-104 -228h-67z" />
    <glyph glyph-name="minus" unicode="&#x2212;" horiz-adv-x="1010" 
d="M85 647v140h839l1 -1v-139h-840z" />
    <glyph glyph-name="uniF001" unicode="&#xf001;" horiz-adv-x="899" 
d="M171 1026v179q0 95 66.5 161.5t160.5 66.5h125v-47q-176 -59 -177 -154v-206h172l-172 -126v-903h-175v903h-128zM692 897l175 130v-1028h-175v898zM692 1432h175l-175 -191v191z" />
    <glyph glyph-name="uniF001" unicode="&#xfb01;" horiz-adv-x="899" 
d="M171 1026v179q0 95 66.5 161.5t160.5 66.5h125v-47q-176 -59 -177 -154v-206h172l-172 -126v-903h-175v903h-128zM692 897l175 130v-1028h-175v898zM692 1432h175l-175 -191v191z" />
    <glyph glyph-name="uniF002" unicode="&#xf002;" horiz-adv-x="899" 
d="M171 1026v179q0 95 66.5 161.5t160.5 66.5h125v-47q-176 -59 -177 -154v-206h172l-172 -126v-903h-175v903h-128zM867 -1h-175v1303l175 130v-1433z" />
    <glyph glyph-name="uniF002" unicode="&#xfb02;" horiz-adv-x="899" 
d="M171 1026v179q0 95 66.5 161.5t160.5 66.5h125v-47q-176 -59 -177 -154v-206h172l-172 -126v-903h-175v903h-128zM867 -1h-175v1303l175 130v-1433z" />
    </font>
</defs>
</svg>
